%TF.GenerationSoftware,KiCad,Pcbnew,8.0.4*%
%TF.CreationDate,2024-09-01T17:43:29+09:00*%
%TF.ProjectId,uPD753adapter,75504437-3533-4616-9461-707465722e6b,rev?*%
%TF.SameCoordinates,Original*%
%TF.FileFunction,Copper,L2,Bot*%
%TF.FilePolarity,Positive*%
%FSLAX46Y46*%
G04 Gerber Fmt 4.6, Leading zero omitted, Abs format (unit mm)*
G04 Created by KiCad (PCBNEW 8.0.4) date 2024-09-01 17:43:29*
%MOMM*%
%LPD*%
G01*
G04 APERTURE LIST*
%ADD10C,0.300000*%
%TA.AperFunction,NonConductor*%
%ADD11C,0.300000*%
%TD*%
%TA.AperFunction,ComponentPad*%
%ADD12R,1.440000X2.000000*%
%TD*%
%TA.AperFunction,ComponentPad*%
%ADD13O,1.440000X2.000000*%
%TD*%
%TA.AperFunction,ComponentPad*%
%ADD14C,1.600000*%
%TD*%
%TA.AperFunction,ComponentPad*%
%ADD15R,1.600000X1.600000*%
%TD*%
%TA.AperFunction,ComponentPad*%
%ADD16O,1.600000X1.600000*%
%TD*%
%TA.AperFunction,ViaPad*%
%ADD17C,0.800000*%
%TD*%
%TA.AperFunction,Conductor*%
%ADD18C,0.250000*%
%TD*%
%TA.AperFunction,Conductor*%
%ADD19C,2.000000*%
%TD*%
%TA.AperFunction,Conductor*%
%ADD20C,0.500000*%
%TD*%
G04 APERTURE END LIST*
D10*
D11*
X65118801Y-33698328D02*
X65118801Y-32198328D01*
X65118801Y-32198328D02*
X64761658Y-32198328D01*
X64761658Y-32198328D02*
X64547372Y-32269757D01*
X64547372Y-32269757D02*
X64404515Y-32412614D01*
X64404515Y-32412614D02*
X64333086Y-32555471D01*
X64333086Y-32555471D02*
X64261658Y-32841185D01*
X64261658Y-32841185D02*
X64261658Y-33055471D01*
X64261658Y-33055471D02*
X64333086Y-33341185D01*
X64333086Y-33341185D02*
X64404515Y-33484042D01*
X64404515Y-33484042D02*
X64547372Y-33626900D01*
X64547372Y-33626900D02*
X64761658Y-33698328D01*
X64761658Y-33698328D02*
X65118801Y-33698328D01*
X63047372Y-33626900D02*
X63190229Y-33698328D01*
X63190229Y-33698328D02*
X63475944Y-33698328D01*
X63475944Y-33698328D02*
X63618801Y-33626900D01*
X63618801Y-33626900D02*
X63690229Y-33484042D01*
X63690229Y-33484042D02*
X63690229Y-32912614D01*
X63690229Y-32912614D02*
X63618801Y-32769757D01*
X63618801Y-32769757D02*
X63475944Y-32698328D01*
X63475944Y-32698328D02*
X63190229Y-32698328D01*
X63190229Y-32698328D02*
X63047372Y-32769757D01*
X63047372Y-32769757D02*
X62975944Y-32912614D01*
X62975944Y-32912614D02*
X62975944Y-33055471D01*
X62975944Y-33055471D02*
X63690229Y-33198328D01*
X62404515Y-33626900D02*
X62261658Y-33698328D01*
X62261658Y-33698328D02*
X61975944Y-33698328D01*
X61975944Y-33698328D02*
X61833087Y-33626900D01*
X61833087Y-33626900D02*
X61761658Y-33484042D01*
X61761658Y-33484042D02*
X61761658Y-33412614D01*
X61761658Y-33412614D02*
X61833087Y-33269757D01*
X61833087Y-33269757D02*
X61975944Y-33198328D01*
X61975944Y-33198328D02*
X62190230Y-33198328D01*
X62190230Y-33198328D02*
X62333087Y-33126900D01*
X62333087Y-33126900D02*
X62404515Y-32984042D01*
X62404515Y-32984042D02*
X62404515Y-32912614D01*
X62404515Y-32912614D02*
X62333087Y-32769757D01*
X62333087Y-32769757D02*
X62190230Y-32698328D01*
X62190230Y-32698328D02*
X61975944Y-32698328D01*
X61975944Y-32698328D02*
X61833087Y-32769757D01*
X61118801Y-33698328D02*
X61118801Y-32698328D01*
X61118801Y-32198328D02*
X61190229Y-32269757D01*
X61190229Y-32269757D02*
X61118801Y-32341185D01*
X61118801Y-32341185D02*
X61047372Y-32269757D01*
X61047372Y-32269757D02*
X61118801Y-32198328D01*
X61118801Y-32198328D02*
X61118801Y-32341185D01*
X59761658Y-32698328D02*
X59761658Y-33912614D01*
X59761658Y-33912614D02*
X59833086Y-34055471D01*
X59833086Y-34055471D02*
X59904515Y-34126900D01*
X59904515Y-34126900D02*
X60047372Y-34198328D01*
X60047372Y-34198328D02*
X60261658Y-34198328D01*
X60261658Y-34198328D02*
X60404515Y-34126900D01*
X59761658Y-33626900D02*
X59904515Y-33698328D01*
X59904515Y-33698328D02*
X60190229Y-33698328D01*
X60190229Y-33698328D02*
X60333086Y-33626900D01*
X60333086Y-33626900D02*
X60404515Y-33555471D01*
X60404515Y-33555471D02*
X60475943Y-33412614D01*
X60475943Y-33412614D02*
X60475943Y-32984042D01*
X60475943Y-32984042D02*
X60404515Y-32841185D01*
X60404515Y-32841185D02*
X60333086Y-32769757D01*
X60333086Y-32769757D02*
X60190229Y-32698328D01*
X60190229Y-32698328D02*
X59904515Y-32698328D01*
X59904515Y-32698328D02*
X59761658Y-32769757D01*
X59047372Y-32698328D02*
X59047372Y-33698328D01*
X59047372Y-32841185D02*
X58975943Y-32769757D01*
X58975943Y-32769757D02*
X58833086Y-32698328D01*
X58833086Y-32698328D02*
X58618800Y-32698328D01*
X58618800Y-32698328D02*
X58475943Y-32769757D01*
X58475943Y-32769757D02*
X58404515Y-32912614D01*
X58404515Y-32912614D02*
X58404515Y-33698328D01*
X57118800Y-33626900D02*
X57261657Y-33698328D01*
X57261657Y-33698328D02*
X57547372Y-33698328D01*
X57547372Y-33698328D02*
X57690229Y-33626900D01*
X57690229Y-33626900D02*
X57761657Y-33484042D01*
X57761657Y-33484042D02*
X57761657Y-32912614D01*
X57761657Y-32912614D02*
X57690229Y-32769757D01*
X57690229Y-32769757D02*
X57547372Y-32698328D01*
X57547372Y-32698328D02*
X57261657Y-32698328D01*
X57261657Y-32698328D02*
X57118800Y-32769757D01*
X57118800Y-32769757D02*
X57047372Y-32912614D01*
X57047372Y-32912614D02*
X57047372Y-33055471D01*
X57047372Y-33055471D02*
X57761657Y-33198328D01*
X55761658Y-33698328D02*
X55761658Y-32198328D01*
X55761658Y-33626900D02*
X55904515Y-33698328D01*
X55904515Y-33698328D02*
X56190229Y-33698328D01*
X56190229Y-33698328D02*
X56333086Y-33626900D01*
X56333086Y-33626900D02*
X56404515Y-33555471D01*
X56404515Y-33555471D02*
X56475943Y-33412614D01*
X56475943Y-33412614D02*
X56475943Y-32984042D01*
X56475943Y-32984042D02*
X56404515Y-32841185D01*
X56404515Y-32841185D02*
X56333086Y-32769757D01*
X56333086Y-32769757D02*
X56190229Y-32698328D01*
X56190229Y-32698328D02*
X55904515Y-32698328D01*
X55904515Y-32698328D02*
X55761658Y-32769757D01*
X53904515Y-33698328D02*
X53904515Y-32198328D01*
X53904515Y-32769757D02*
X53761658Y-32698328D01*
X53761658Y-32698328D02*
X53475943Y-32698328D01*
X53475943Y-32698328D02*
X53333086Y-32769757D01*
X53333086Y-32769757D02*
X53261658Y-32841185D01*
X53261658Y-32841185D02*
X53190229Y-32984042D01*
X53190229Y-32984042D02*
X53190229Y-33412614D01*
X53190229Y-33412614D02*
X53261658Y-33555471D01*
X53261658Y-33555471D02*
X53333086Y-33626900D01*
X53333086Y-33626900D02*
X53475943Y-33698328D01*
X53475943Y-33698328D02*
X53761658Y-33698328D01*
X53761658Y-33698328D02*
X53904515Y-33626900D01*
X52690229Y-32698328D02*
X52333086Y-33698328D01*
X51975943Y-32698328D02*
X52333086Y-33698328D01*
X52333086Y-33698328D02*
X52475943Y-34055471D01*
X52475943Y-34055471D02*
X52547372Y-34126900D01*
X52547372Y-34126900D02*
X52690229Y-34198328D01*
X49404515Y-33698328D02*
X49904515Y-32984042D01*
X50261658Y-33698328D02*
X50261658Y-32198328D01*
X50261658Y-32198328D02*
X49690229Y-32198328D01*
X49690229Y-32198328D02*
X49547372Y-32269757D01*
X49547372Y-32269757D02*
X49475943Y-32341185D01*
X49475943Y-32341185D02*
X49404515Y-32484042D01*
X49404515Y-32484042D02*
X49404515Y-32698328D01*
X49404515Y-32698328D02*
X49475943Y-32841185D01*
X49475943Y-32841185D02*
X49547372Y-32912614D01*
X49547372Y-32912614D02*
X49690229Y-32984042D01*
X49690229Y-32984042D02*
X50261658Y-32984042D01*
X48904515Y-32698328D02*
X48547372Y-33698328D01*
X48190229Y-32698328D02*
X48547372Y-33698328D01*
X48547372Y-33698328D02*
X48690229Y-34055471D01*
X48690229Y-34055471D02*
X48761658Y-34126900D01*
X48761658Y-34126900D02*
X48904515Y-34198328D01*
X47404515Y-33698328D02*
X47547372Y-33626900D01*
X47547372Y-33626900D02*
X47618801Y-33555471D01*
X47618801Y-33555471D02*
X47690229Y-33412614D01*
X47690229Y-33412614D02*
X47690229Y-32984042D01*
X47690229Y-32984042D02*
X47618801Y-32841185D01*
X47618801Y-32841185D02*
X47547372Y-32769757D01*
X47547372Y-32769757D02*
X47404515Y-32698328D01*
X47404515Y-32698328D02*
X47190229Y-32698328D01*
X47190229Y-32698328D02*
X47047372Y-32769757D01*
X47047372Y-32769757D02*
X46975944Y-32841185D01*
X46975944Y-32841185D02*
X46904515Y-32984042D01*
X46904515Y-32984042D02*
X46904515Y-33412614D01*
X46904515Y-33412614D02*
X46975944Y-33555471D01*
X46975944Y-33555471D02*
X47047372Y-33626900D01*
X47047372Y-33626900D02*
X47190229Y-33698328D01*
X47190229Y-33698328D02*
X47404515Y-33698328D01*
X45118801Y-33698328D02*
X45118801Y-32198328D01*
X45118801Y-32198328D02*
X44618801Y-33269757D01*
X44618801Y-33269757D02*
X44118801Y-32198328D01*
X44118801Y-32198328D02*
X44118801Y-33698328D01*
X42761658Y-32698328D02*
X42761658Y-33698328D01*
X43404515Y-32698328D02*
X43404515Y-33484042D01*
X43404515Y-33484042D02*
X43333086Y-33626900D01*
X43333086Y-33626900D02*
X43190229Y-33698328D01*
X43190229Y-33698328D02*
X42975943Y-33698328D01*
X42975943Y-33698328D02*
X42833086Y-33626900D01*
X42833086Y-33626900D02*
X42761658Y-33555471D01*
X42047372Y-33698328D02*
X42047372Y-32198328D01*
X41904515Y-33126900D02*
X41475943Y-33698328D01*
X41475943Y-32698328D02*
X42047372Y-33269757D01*
X40190229Y-33698328D02*
X40190229Y-32912614D01*
X40190229Y-32912614D02*
X40261657Y-32769757D01*
X40261657Y-32769757D02*
X40404514Y-32698328D01*
X40404514Y-32698328D02*
X40690229Y-32698328D01*
X40690229Y-32698328D02*
X40833086Y-32769757D01*
X40190229Y-33626900D02*
X40333086Y-33698328D01*
X40333086Y-33698328D02*
X40690229Y-33698328D01*
X40690229Y-33698328D02*
X40833086Y-33626900D01*
X40833086Y-33626900D02*
X40904514Y-33484042D01*
X40904514Y-33484042D02*
X40904514Y-33341185D01*
X40904514Y-33341185D02*
X40833086Y-33198328D01*
X40833086Y-33198328D02*
X40690229Y-33126900D01*
X40690229Y-33126900D02*
X40333086Y-33126900D01*
X40333086Y-33126900D02*
X40190229Y-33055471D01*
X39475943Y-33698328D02*
X39475943Y-32698328D01*
X39475943Y-32198328D02*
X39547371Y-32269757D01*
X39547371Y-32269757D02*
X39475943Y-32341185D01*
X39475943Y-32341185D02*
X39404514Y-32269757D01*
X39404514Y-32269757D02*
X39475943Y-32198328D01*
X39475943Y-32198328D02*
X39475943Y-32341185D01*
X37618800Y-33698328D02*
X37618800Y-32198328D01*
X36975943Y-33698328D02*
X36975943Y-32912614D01*
X36975943Y-32912614D02*
X37047371Y-32769757D01*
X37047371Y-32769757D02*
X37190228Y-32698328D01*
X37190228Y-32698328D02*
X37404514Y-32698328D01*
X37404514Y-32698328D02*
X37547371Y-32769757D01*
X37547371Y-32769757D02*
X37618800Y-32841185D01*
X36475942Y-32698328D02*
X35904514Y-32698328D01*
X36261657Y-32198328D02*
X36261657Y-33484042D01*
X36261657Y-33484042D02*
X36190228Y-33626900D01*
X36190228Y-33626900D02*
X36047371Y-33698328D01*
X36047371Y-33698328D02*
X35904514Y-33698328D01*
X35618799Y-32698328D02*
X35047371Y-32698328D01*
X35404514Y-32198328D02*
X35404514Y-33484042D01*
X35404514Y-33484042D02*
X35333085Y-33626900D01*
X35333085Y-33626900D02*
X35190228Y-33698328D01*
X35190228Y-33698328D02*
X35047371Y-33698328D01*
X34547371Y-32698328D02*
X34547371Y-34198328D01*
X34547371Y-32769757D02*
X34404514Y-32698328D01*
X34404514Y-32698328D02*
X34118799Y-32698328D01*
X34118799Y-32698328D02*
X33975942Y-32769757D01*
X33975942Y-32769757D02*
X33904514Y-32841185D01*
X33904514Y-32841185D02*
X33833085Y-32984042D01*
X33833085Y-32984042D02*
X33833085Y-33412614D01*
X33833085Y-33412614D02*
X33904514Y-33555471D01*
X33904514Y-33555471D02*
X33975942Y-33626900D01*
X33975942Y-33626900D02*
X34118799Y-33698328D01*
X34118799Y-33698328D02*
X34404514Y-33698328D01*
X34404514Y-33698328D02*
X34547371Y-33626900D01*
X33261656Y-33626900D02*
X33118799Y-33698328D01*
X33118799Y-33698328D02*
X32833085Y-33698328D01*
X32833085Y-33698328D02*
X32690228Y-33626900D01*
X32690228Y-33626900D02*
X32618799Y-33484042D01*
X32618799Y-33484042D02*
X32618799Y-33412614D01*
X32618799Y-33412614D02*
X32690228Y-33269757D01*
X32690228Y-33269757D02*
X32833085Y-33198328D01*
X32833085Y-33198328D02*
X33047371Y-33198328D01*
X33047371Y-33198328D02*
X33190228Y-33126900D01*
X33190228Y-33126900D02*
X33261656Y-32984042D01*
X33261656Y-32984042D02*
X33261656Y-32912614D01*
X33261656Y-32912614D02*
X33190228Y-32769757D01*
X33190228Y-32769757D02*
X33047371Y-32698328D01*
X33047371Y-32698328D02*
X32833085Y-32698328D01*
X32833085Y-32698328D02*
X32690228Y-32769757D01*
X31975942Y-33555471D02*
X31904513Y-33626900D01*
X31904513Y-33626900D02*
X31975942Y-33698328D01*
X31975942Y-33698328D02*
X32047370Y-33626900D01*
X32047370Y-33626900D02*
X31975942Y-33555471D01*
X31975942Y-33555471D02*
X31975942Y-33698328D01*
X31975942Y-32769757D02*
X31904513Y-32841185D01*
X31904513Y-32841185D02*
X31975942Y-32912614D01*
X31975942Y-32912614D02*
X32047370Y-32841185D01*
X32047370Y-32841185D02*
X31975942Y-32769757D01*
X31975942Y-32769757D02*
X31975942Y-32912614D01*
X30190227Y-32126900D02*
X31475941Y-34055471D01*
X28618798Y-32126900D02*
X29904512Y-34055471D01*
X27475941Y-32698328D02*
X27475941Y-33912614D01*
X27475941Y-33912614D02*
X27547369Y-34055471D01*
X27547369Y-34055471D02*
X27618798Y-34126900D01*
X27618798Y-34126900D02*
X27761655Y-34198328D01*
X27761655Y-34198328D02*
X27975941Y-34198328D01*
X27975941Y-34198328D02*
X28118798Y-34126900D01*
X27475941Y-33626900D02*
X27618798Y-33698328D01*
X27618798Y-33698328D02*
X27904512Y-33698328D01*
X27904512Y-33698328D02*
X28047369Y-33626900D01*
X28047369Y-33626900D02*
X28118798Y-33555471D01*
X28118798Y-33555471D02*
X28190226Y-33412614D01*
X28190226Y-33412614D02*
X28190226Y-32984042D01*
X28190226Y-32984042D02*
X28118798Y-32841185D01*
X28118798Y-32841185D02*
X28047369Y-32769757D01*
X28047369Y-32769757D02*
X27904512Y-32698328D01*
X27904512Y-32698328D02*
X27618798Y-32698328D01*
X27618798Y-32698328D02*
X27475941Y-32769757D01*
X26761655Y-33698328D02*
X26761655Y-32698328D01*
X26761655Y-32198328D02*
X26833083Y-32269757D01*
X26833083Y-32269757D02*
X26761655Y-32341185D01*
X26761655Y-32341185D02*
X26690226Y-32269757D01*
X26690226Y-32269757D02*
X26761655Y-32198328D01*
X26761655Y-32198328D02*
X26761655Y-32341185D01*
X26261654Y-32698328D02*
X25690226Y-32698328D01*
X26047369Y-32198328D02*
X26047369Y-33484042D01*
X26047369Y-33484042D02*
X25975940Y-33626900D01*
X25975940Y-33626900D02*
X25833083Y-33698328D01*
X25833083Y-33698328D02*
X25690226Y-33698328D01*
X25190226Y-33698328D02*
X25190226Y-32198328D01*
X24547369Y-33698328D02*
X24547369Y-32912614D01*
X24547369Y-32912614D02*
X24618797Y-32769757D01*
X24618797Y-32769757D02*
X24761654Y-32698328D01*
X24761654Y-32698328D02*
X24975940Y-32698328D01*
X24975940Y-32698328D02*
X25118797Y-32769757D01*
X25118797Y-32769757D02*
X25190226Y-32841185D01*
X23190226Y-32698328D02*
X23190226Y-33698328D01*
X23833083Y-32698328D02*
X23833083Y-33484042D01*
X23833083Y-33484042D02*
X23761654Y-33626900D01*
X23761654Y-33626900D02*
X23618797Y-33698328D01*
X23618797Y-33698328D02*
X23404511Y-33698328D01*
X23404511Y-33698328D02*
X23261654Y-33626900D01*
X23261654Y-33626900D02*
X23190226Y-33555471D01*
X22475940Y-33698328D02*
X22475940Y-32198328D01*
X22475940Y-32769757D02*
X22333083Y-32698328D01*
X22333083Y-32698328D02*
X22047368Y-32698328D01*
X22047368Y-32698328D02*
X21904511Y-32769757D01*
X21904511Y-32769757D02*
X21833083Y-32841185D01*
X21833083Y-32841185D02*
X21761654Y-32984042D01*
X21761654Y-32984042D02*
X21761654Y-33412614D01*
X21761654Y-33412614D02*
X21833083Y-33555471D01*
X21833083Y-33555471D02*
X21904511Y-33626900D01*
X21904511Y-33626900D02*
X22047368Y-33698328D01*
X22047368Y-33698328D02*
X22333083Y-33698328D01*
X22333083Y-33698328D02*
X22475940Y-33626900D01*
X21118797Y-33555471D02*
X21047368Y-33626900D01*
X21047368Y-33626900D02*
X21118797Y-33698328D01*
X21118797Y-33698328D02*
X21190225Y-33626900D01*
X21190225Y-33626900D02*
X21118797Y-33555471D01*
X21118797Y-33555471D02*
X21118797Y-33698328D01*
X19761654Y-33626900D02*
X19904511Y-33698328D01*
X19904511Y-33698328D02*
X20190225Y-33698328D01*
X20190225Y-33698328D02*
X20333082Y-33626900D01*
X20333082Y-33626900D02*
X20404511Y-33555471D01*
X20404511Y-33555471D02*
X20475939Y-33412614D01*
X20475939Y-33412614D02*
X20475939Y-32984042D01*
X20475939Y-32984042D02*
X20404511Y-32841185D01*
X20404511Y-32841185D02*
X20333082Y-32769757D01*
X20333082Y-32769757D02*
X20190225Y-32698328D01*
X20190225Y-32698328D02*
X19904511Y-32698328D01*
X19904511Y-32698328D02*
X19761654Y-32769757D01*
X18904511Y-33698328D02*
X19047368Y-33626900D01*
X19047368Y-33626900D02*
X19118797Y-33555471D01*
X19118797Y-33555471D02*
X19190225Y-33412614D01*
X19190225Y-33412614D02*
X19190225Y-32984042D01*
X19190225Y-32984042D02*
X19118797Y-32841185D01*
X19118797Y-32841185D02*
X19047368Y-32769757D01*
X19047368Y-32769757D02*
X18904511Y-32698328D01*
X18904511Y-32698328D02*
X18690225Y-32698328D01*
X18690225Y-32698328D02*
X18547368Y-32769757D01*
X18547368Y-32769757D02*
X18475940Y-32841185D01*
X18475940Y-32841185D02*
X18404511Y-32984042D01*
X18404511Y-32984042D02*
X18404511Y-33412614D01*
X18404511Y-33412614D02*
X18475940Y-33555471D01*
X18475940Y-33555471D02*
X18547368Y-33626900D01*
X18547368Y-33626900D02*
X18690225Y-33698328D01*
X18690225Y-33698328D02*
X18904511Y-33698328D01*
X17761654Y-33698328D02*
X17761654Y-32698328D01*
X17761654Y-32841185D02*
X17690225Y-32769757D01*
X17690225Y-32769757D02*
X17547368Y-32698328D01*
X17547368Y-32698328D02*
X17333082Y-32698328D01*
X17333082Y-32698328D02*
X17190225Y-32769757D01*
X17190225Y-32769757D02*
X17118797Y-32912614D01*
X17118797Y-32912614D02*
X17118797Y-33698328D01*
X17118797Y-32912614D02*
X17047368Y-32769757D01*
X17047368Y-32769757D02*
X16904511Y-32698328D01*
X16904511Y-32698328D02*
X16690225Y-32698328D01*
X16690225Y-32698328D02*
X16547368Y-32769757D01*
X16547368Y-32769757D02*
X16475939Y-32912614D01*
X16475939Y-32912614D02*
X16475939Y-33698328D01*
X14690225Y-32126900D02*
X15975939Y-34055471D01*
X14190225Y-33698328D02*
X14190225Y-32698328D01*
X14190225Y-32984042D02*
X14118796Y-32841185D01*
X14118796Y-32841185D02*
X14047368Y-32769757D01*
X14047368Y-32769757D02*
X13904510Y-32698328D01*
X13904510Y-32698328D02*
X13761653Y-32698328D01*
X13404511Y-32698328D02*
X13047368Y-33698328D01*
X12690225Y-32698328D02*
X13047368Y-33698328D01*
X13047368Y-33698328D02*
X13190225Y-34055471D01*
X13190225Y-34055471D02*
X13261654Y-34126900D01*
X13261654Y-34126900D02*
X13404511Y-34198328D01*
X11904511Y-33698328D02*
X12047368Y-33626900D01*
X12047368Y-33626900D02*
X12118797Y-33555471D01*
X12118797Y-33555471D02*
X12190225Y-33412614D01*
X12190225Y-33412614D02*
X12190225Y-32984042D01*
X12190225Y-32984042D02*
X12118797Y-32841185D01*
X12118797Y-32841185D02*
X12047368Y-32769757D01*
X12047368Y-32769757D02*
X11904511Y-32698328D01*
X11904511Y-32698328D02*
X11690225Y-32698328D01*
X11690225Y-32698328D02*
X11547368Y-32769757D01*
X11547368Y-32769757D02*
X11475940Y-32841185D01*
X11475940Y-32841185D02*
X11404511Y-32984042D01*
X11404511Y-32984042D02*
X11404511Y-33412614D01*
X11404511Y-33412614D02*
X11475940Y-33555471D01*
X11475940Y-33555471D02*
X11547368Y-33626900D01*
X11547368Y-33626900D02*
X11690225Y-33698328D01*
X11690225Y-33698328D02*
X11904511Y-33698328D01*
X10761654Y-33698328D02*
X10761654Y-32698328D01*
X10761654Y-32841185D02*
X10690225Y-32769757D01*
X10690225Y-32769757D02*
X10547368Y-32698328D01*
X10547368Y-32698328D02*
X10333082Y-32698328D01*
X10333082Y-32698328D02*
X10190225Y-32769757D01*
X10190225Y-32769757D02*
X10118797Y-32912614D01*
X10118797Y-32912614D02*
X10118797Y-33698328D01*
X10118797Y-32912614D02*
X10047368Y-32769757D01*
X10047368Y-32769757D02*
X9904511Y-32698328D01*
X9904511Y-32698328D02*
X9690225Y-32698328D01*
X9690225Y-32698328D02*
X9547368Y-32769757D01*
X9547368Y-32769757D02*
X9475939Y-32912614D01*
X9475939Y-32912614D02*
X9475939Y-33698328D01*
X8118797Y-32698328D02*
X8118797Y-33698328D01*
X8761654Y-32698328D02*
X8761654Y-33484042D01*
X8761654Y-33484042D02*
X8690225Y-33626900D01*
X8690225Y-33626900D02*
X8547368Y-33698328D01*
X8547368Y-33698328D02*
X8333082Y-33698328D01*
X8333082Y-33698328D02*
X8190225Y-33626900D01*
X8190225Y-33626900D02*
X8118797Y-33555471D01*
X7404511Y-33698328D02*
X7404511Y-32198328D01*
X7261654Y-33126900D02*
X6833082Y-33698328D01*
X6833082Y-32698328D02*
X7404511Y-33269757D01*
D12*
%TO.P,J1,1,Pin_1*%
%TO.N,READY*%
X13638000Y-25400000D03*
D13*
%TO.P,J1,2,Pin_2*%
%TO.N,WAIT*%
X16178000Y-25400000D03*
%TO.P,J1,3,Pin_3*%
%TO.N,SYNC*%
X18718000Y-25400000D03*
%TO.P,J1,4,Pin_4*%
%TO.N,INT*%
X21258000Y-25400000D03*
%TO.P,J1,5,Pin_5*%
%TO.N,INTE*%
X23798000Y-25400000D03*
%TO.P,J1,6,Pin_6*%
%TO.N,WR_n*%
X26338000Y-25400000D03*
%TO.P,J1,7,Pin_7*%
%TO.N,DBIN*%
X28878000Y-25400000D03*
%TO.P,J1,8,Pin_8*%
%TO.N,CLK1*%
X31418000Y-25400000D03*
%TO.P,J1,9,Pin_9*%
%TO.N,unconnected-(J1-Pin_9-Pad9)*%
X33958000Y-25400000D03*
%TO.P,J1,10,Pin_10*%
%TO.N,unconnected-(J1-Pin_10-Pad10)*%
X36498000Y-25400000D03*
%TO.P,J1,11,Pin_11*%
%TO.N,CLK2*%
X39038000Y-25400000D03*
%TO.P,J1,12,Pin_12*%
%TO.N,D0*%
X41578000Y-25400000D03*
%TO.P,J1,13,Pin_13*%
%TO.N,D1*%
X44118000Y-25400000D03*
%TO.P,J1,14,Pin_14*%
%TO.N,D2*%
X46658000Y-25400000D03*
%TO.P,J1,15,Pin_15*%
%TO.N,D3*%
X49198000Y-25400000D03*
%TO.P,J1,16,Pin_16*%
%TO.N,D4*%
X51738000Y-25400000D03*
%TO.P,J1,17,Pin_17*%
%TO.N,D5*%
X54278000Y-25400000D03*
%TO.P,J1,18,Pin_18*%
%TO.N,D6*%
X56818000Y-25400000D03*
%TO.P,J1,19,Pin_19*%
%TO.N,D7*%
X59358000Y-25400000D03*
%TO.P,J1,20,Pin_20*%
%TO.N,GND*%
X61898000Y-25400000D03*
%TO.P,J1,21,Pin_21*%
%TO.N,-5V*%
X64438000Y-25400000D03*
%TO.P,J1,22,Pin_22*%
%TO.N,A0*%
X64438000Y-10160000D03*
%TO.P,J1,23,Pin_23*%
%TO.N,A1*%
X61898000Y-10160000D03*
%TO.P,J1,24,Pin_24*%
%TO.N,A2*%
X59358000Y-10160000D03*
%TO.P,J1,25,Pin_25*%
%TO.N,A3*%
X56818000Y-10160000D03*
%TO.P,J1,26,Pin_26*%
%TO.N,A4*%
X54278000Y-10160000D03*
%TO.P,J1,27,Pin_27*%
%TO.N,A5*%
X51738000Y-10160000D03*
%TO.P,J1,28,Pin_28*%
%TO.N,A6*%
X49198000Y-10160000D03*
%TO.P,J1,29,Pin_29*%
%TO.N,A7*%
X46658000Y-10160000D03*
%TO.P,J1,30,Pin_30*%
%TO.N,A8*%
X44118000Y-10160000D03*
%TO.P,J1,31,Pin_31*%
%TO.N,A9*%
X41578000Y-10160000D03*
%TO.P,J1,32,Pin_32*%
%TO.N,A10*%
X39038000Y-10160000D03*
%TO.P,J1,33,Pin_33*%
%TO.N,A11*%
X36498000Y-10160000D03*
%TO.P,J1,34,Pin_34*%
%TO.N,A12*%
X33958000Y-10160000D03*
%TO.P,J1,35,Pin_35*%
%TO.N,A13*%
X31418000Y-10160000D03*
%TO.P,J1,36,Pin_36*%
%TO.N,A14*%
X28878000Y-10160000D03*
%TO.P,J1,37,Pin_37*%
%TO.N,A15*%
X26338000Y-10160000D03*
%TO.P,J1,38,Pin_38*%
%TO.N,HLDA*%
X23798000Y-10160000D03*
%TO.P,J1,39,Pin_39*%
%TO.N,HOLD*%
X21258000Y-10160000D03*
%TO.P,J1,40,Pin_40*%
%TO.N,+5V*%
X18718000Y-10160000D03*
%TO.P,J1,41,Pin_41*%
%TO.N,+12V*%
X16178000Y-10160000D03*
%TO.P,J1,42,Pin_42*%
%TO.N,RESET*%
X13638000Y-10160000D03*
%TD*%
D14*
%TO.P,C2,1*%
%TO.N,+12V*%
X13970000Y-3810000D03*
%TO.P,C2,2*%
%TO.N,GND*%
X11470000Y-3810000D03*
%TD*%
D15*
%TO.P,J2,1,Pin_1*%
%TO.N,A10*%
X13638000Y-22860000D03*
D16*
%TO.P,J2,2,Pin_2*%
%TO.N,GND*%
X16178000Y-22860000D03*
%TO.P,J2,3,Pin_3*%
%TO.N,D4*%
X18718000Y-22860000D03*
%TO.P,J2,4,Pin_4*%
%TO.N,D5*%
X21258000Y-22860000D03*
%TO.P,J2,5,Pin_5*%
%TO.N,D6*%
X23798000Y-22860000D03*
%TO.P,J2,6,Pin_6*%
%TO.N,D7*%
X26338000Y-22860000D03*
%TO.P,J2,7,Pin_7*%
%TO.N,D3*%
X28878000Y-22860000D03*
%TO.P,J2,8,Pin_8*%
%TO.N,D2*%
X31418000Y-22860000D03*
%TO.P,J2,9,Pin_9*%
%TO.N,D1*%
X33958000Y-22860000D03*
%TO.P,J2,10,Pin_10*%
%TO.N,D0*%
X36498000Y-22860000D03*
%TO.P,J2,11,Pin_11*%
%TO.N,-5V*%
X39038000Y-22860000D03*
%TO.P,J2,12,Pin_12*%
%TO.N,RESET*%
X41578000Y-22860000D03*
%TO.P,J2,13,Pin_13*%
%TO.N,HOLD*%
X44118000Y-22860000D03*
%TO.P,J2,14,Pin_14*%
%TO.N,INT*%
X46658000Y-22860000D03*
%TO.P,J2,15,Pin_15*%
%TO.N,CLK2*%
X49198000Y-22860000D03*
%TO.P,J2,16,Pin_16*%
%TO.N,INTE*%
X51738000Y-22860000D03*
%TO.P,J2,17,Pin_17*%
%TO.N,DBIN*%
X54278000Y-22860000D03*
%TO.P,J2,18,Pin_18*%
%TO.N,WR_n*%
X56818000Y-22860000D03*
%TO.P,J2,19,Pin_19*%
%TO.N,SYNC*%
X59358000Y-22860000D03*
%TO.P,J2,20,Pin_20*%
%TO.N,+5V*%
X61898000Y-22860000D03*
%TO.P,J2,21,Pin_21*%
%TO.N,HLDA*%
X61898000Y-7620000D03*
%TO.P,J2,22,Pin_22*%
%TO.N,CLK1*%
X59358000Y-7620000D03*
%TO.P,J2,23,Pin_23*%
%TO.N,READY*%
X56818000Y-7620000D03*
%TO.P,J2,24,Pin_24*%
%TO.N,WAIT*%
X54278000Y-7620000D03*
%TO.P,J2,25,Pin_25*%
%TO.N,A0*%
X51738000Y-7620000D03*
%TO.P,J2,26,Pin_26*%
%TO.N,A1*%
X49198000Y-7620000D03*
%TO.P,J2,27,Pin_27*%
%TO.N,A2*%
X46658000Y-7620000D03*
%TO.P,J2,28,Pin_28*%
%TO.N,+12V*%
X44118000Y-7620000D03*
%TO.P,J2,29,Pin_29*%
%TO.N,A3*%
X41578000Y-7620000D03*
%TO.P,J2,30,Pin_30*%
%TO.N,A4*%
X39038000Y-7620000D03*
%TO.P,J2,31,Pin_31*%
%TO.N,A5*%
X36498000Y-7620000D03*
%TO.P,J2,32,Pin_32*%
%TO.N,A6*%
X33958000Y-7620000D03*
%TO.P,J2,33,Pin_33*%
%TO.N,A7*%
X31418000Y-7620000D03*
%TO.P,J2,34,Pin_34*%
%TO.N,A8*%
X28878000Y-7620000D03*
%TO.P,J2,35,Pin_35*%
%TO.N,A9*%
X26338000Y-7620000D03*
%TO.P,J2,36,Pin_36*%
%TO.N,A15*%
X23798000Y-7620000D03*
%TO.P,J2,37,Pin_37*%
%TO.N,A12*%
X21258000Y-7620000D03*
%TO.P,J2,38,Pin_38*%
%TO.N,A13*%
X18718000Y-7620000D03*
%TO.P,J2,39,Pin_39*%
%TO.N,A14*%
X16178000Y-7620000D03*
%TO.P,J2,40,Pin_40*%
%TO.N,A11*%
X13638000Y-7620000D03*
%TD*%
D14*
%TO.P,C1,1*%
%TO.N,+5V*%
X7620000Y-3810000D03*
%TO.P,C1,2*%
%TO.N,GND*%
X5120000Y-3810000D03*
%TD*%
D17*
%TO.N,WAIT*%
X53262000Y-28448000D03*
%TO.N,D4*%
X51738000Y-28425000D03*
%TO.N,A1*%
X60628000Y-5080000D03*
%TO.N,INT*%
X46658000Y-17780000D03*
%TO.N,INTE*%
X51738000Y-19267000D03*
%TO.N,D7*%
X59358000Y-27700000D03*
%TO.N,A2*%
X58342000Y-5080000D03*
%TO.N,RESET*%
X41578000Y-13970000D03*
%TO.N,A5*%
X50468000Y-3556000D03*
%TO.N,A3*%
X55548000Y-4572000D03*
%TO.N,D5*%
X55421000Y-18542000D03*
%TO.N,HLDA*%
X62943000Y-14897997D03*
X23798000Y-15494000D03*
%TO.N,HOLD*%
X21258000Y-13208000D03*
X44118000Y-13208000D03*
%TO.N,A8*%
X30148000Y-11430000D03*
%TO.N,A7*%
X32688000Y-12446000D03*
%TO.N,A10*%
X13716000Y-16510000D03*
X39116000Y-14695000D03*
%TO.N,A6*%
X47928000Y-3397000D03*
%TO.N,D6*%
X21590000Y-17780000D03*
%TO.N,READY*%
X58088000Y-28448000D03*
%TD*%
D18*
%TO.N,D6*%
X23798000Y-19988000D02*
X21590000Y-17780000D01*
X23798000Y-22860000D02*
X23798000Y-19988000D01*
D19*
%TO.N,+5V*%
X18718000Y-10160000D02*
X18718000Y-13171270D01*
X7620000Y-10248560D02*
X7620000Y-4831572D01*
X7620000Y-10248560D02*
X7620000Y-3810000D01*
X18718000Y-13171270D02*
X17089270Y-14800000D01*
X12171440Y-14800000D02*
X7620000Y-10248560D01*
X17089270Y-14800000D02*
X12171440Y-14800000D01*
%TO.N,+12V*%
X41439370Y-3810000D02*
X44118000Y-6488630D01*
X13082710Y-12600000D02*
X10035786Y-9553076D01*
X16178000Y-10160000D02*
X16178000Y-12600000D01*
X13970000Y-4138428D02*
X13970000Y-3810000D01*
X44118000Y-6488630D02*
X44118000Y-7620000D01*
X13970000Y-3810000D02*
X41439370Y-3810000D01*
X10035786Y-8072642D02*
X13970000Y-4138428D01*
X16178000Y-12600000D02*
X13082710Y-12600000D01*
X10035786Y-9553076D02*
X10035786Y-8072642D01*
D18*
%TO.N,WAIT*%
X53153000Y-28339000D02*
X53262000Y-28448000D01*
X54278000Y-7620000D02*
X53153000Y-8745000D01*
X53153000Y-8745000D02*
X53153000Y-28339000D01*
%TO.N,D4*%
X51738000Y-25400000D02*
X51738000Y-28425000D01*
%TO.N,A1*%
X61898000Y-9210991D02*
X60628000Y-7940991D01*
X60628000Y-7940991D02*
X60628000Y-5080000D01*
X61898000Y-10160000D02*
X61898000Y-9210991D01*
%TO.N,D2*%
X32913000Y-24355000D02*
X32913000Y-26133000D01*
X31418000Y-22860000D02*
X32913000Y-24355000D01*
X34405000Y-27625000D02*
X44433000Y-27625000D01*
X32913000Y-26133000D02*
X34405000Y-27625000D01*
X44433000Y-27625000D02*
X46658000Y-25400000D01*
%TO.N,INT*%
X46658000Y-17780000D02*
X46658000Y-22860000D01*
%TO.N,INTE*%
X51738000Y-22860000D02*
X51738000Y-19267000D01*
%TO.N,D7*%
X59358000Y-25400000D02*
X59358000Y-27700000D01*
%TO.N,A2*%
X58233000Y-5189000D02*
X58342000Y-5080000D01*
X59358000Y-10160000D02*
X58233000Y-9035000D01*
X58233000Y-9035000D02*
X58233000Y-5189000D01*
%TO.N,A15*%
X23798000Y-7620000D02*
X26338000Y-10160000D01*
%TO.N,RESET*%
X41578000Y-22860000D02*
X41578000Y-13970000D01*
%TO.N,A5*%
X50468000Y-8890000D02*
X51738000Y-10160000D01*
X50468000Y-3556000D02*
X50468000Y-8890000D01*
%TO.N,A3*%
X55548000Y-5080000D02*
X55548000Y-8890000D01*
X55548000Y-8890000D02*
X56818000Y-10160000D01*
%TO.N,D5*%
X55403000Y-23325991D02*
X55403000Y-18560000D01*
X55403000Y-18560000D02*
X55421000Y-18542000D01*
X55403000Y-23325991D02*
X54278000Y-24450991D01*
X54278000Y-25400000D02*
X54278000Y-24450991D01*
%TO.N,HLDA*%
X23798000Y-10160000D02*
X23798000Y-15494000D01*
X62943000Y-14897997D02*
X62943000Y-8665000D01*
X61898000Y-7620000D02*
X62943000Y-8665000D01*
%TO.N,HOLD*%
X21258000Y-13208000D02*
X21258000Y-10160000D01*
X44118000Y-22860000D02*
X44118000Y-13208000D01*
%TO.N,A8*%
X30148000Y-11430000D02*
X30148000Y-8890000D01*
X30148000Y-8890000D02*
X28878000Y-7620000D01*
%TO.N,A7*%
X32688000Y-12446000D02*
X32688000Y-8890000D01*
X31418000Y-7620000D02*
X32688000Y-8890000D01*
%TO.N,A10*%
X13716000Y-16510000D02*
X13638000Y-16588000D01*
X39038000Y-14617000D02*
X39116000Y-14695000D01*
X39038000Y-10160000D02*
X39038000Y-14617000D01*
X13638000Y-16588000D02*
X13638000Y-22860000D01*
%TO.N,D1*%
X44118000Y-25400000D02*
X42343000Y-27175000D01*
X33958000Y-22860000D02*
X35003000Y-23905000D01*
X35003000Y-25662853D02*
X36515147Y-27175000D01*
X35003000Y-23905000D02*
X35003000Y-25662853D01*
X36515147Y-27175000D02*
X42343000Y-27175000D01*
D20*
%TO.N,CLK1*%
X35264827Y-29298000D02*
X31418000Y-25451173D01*
X59358000Y-7620000D02*
X60628000Y-8890000D01*
X60628000Y-27686000D02*
X59016000Y-29298000D01*
X59016000Y-29298000D02*
X35264827Y-29298000D01*
X60628000Y-8890000D02*
X60628000Y-27686000D01*
D18*
%TO.N,D0*%
X37713000Y-24075000D02*
X36498000Y-22860000D01*
X41578000Y-25400000D02*
X40253000Y-24075000D01*
X40253000Y-24075000D02*
X37713000Y-24075000D01*
%TO.N,A9*%
X39546000Y-6495000D02*
X39292000Y-6495000D01*
X39503991Y-6495000D02*
X39292000Y-6495000D01*
X40199000Y-8781000D02*
X40199000Y-7148000D01*
X27463000Y-6495000D02*
X39292000Y-6495000D01*
X40199000Y-7190009D02*
X39503991Y-6495000D01*
X41578000Y-10160000D02*
X40199000Y-8781000D01*
X40199000Y-7148000D02*
X39546000Y-6495000D01*
X40199000Y-8781000D02*
X40199000Y-7190009D01*
X27463000Y-6495000D02*
X26338000Y-7620000D01*
%TO.N,A6*%
X47928000Y-8890000D02*
X49198000Y-10160000D01*
X47928000Y-8890000D02*
X47928000Y-3397000D01*
%TO.N,READY*%
X56818000Y-8402147D02*
X58088000Y-9672147D01*
X58088000Y-9672147D02*
X58088000Y-28448000D01*
X56818000Y-7620000D02*
X56818000Y-8402147D01*
D19*
%TO.N,+5V*%
X7620000Y-4831572D02*
X10841572Y-1610000D01*
X62078000Y-22860000D02*
X66358000Y-18580000D01*
X66358000Y-18580000D02*
X66358000Y-8547258D01*
X66358000Y-8547258D02*
X59420742Y-1610000D01*
X59420742Y-1610000D02*
X10841572Y-1610000D01*
%TD*%
M02*
