M48
; DRILL file {KiCad 8.0.4} date 2024-09-01T17:43:32+0900
; FORMAT={-:-/ absolute / inch / decimal}
; #@! TF.CreationDate,2024-09-01T17:43:32+09:00
; #@! TF.GenerationSoftware,Kicad,Pcbnew,8.0.4
; #@! TF.FileFunction,Plated,1,2,PTH
FMAT,2
INCH
; #@! TA.AperFunction,Plated,PTH,ViaDrill
T1C0.0157
; #@! TA.AperFunction,Plated,PTH,ComponentDrill
T2C0.0315
; #@! TA.AperFunction,Plated,PTH,ComponentDrill
T3C0.0394
%
G90
G05
T1
X0.54Y-0.65
X0.8369Y-0.52
X0.85Y-0.7
X0.9369Y-0.61
X1.1869Y-0.45
X1.2869Y-0.49
X1.54Y-0.5785
X1.6369Y-0.55
X1.7369Y-0.52
X1.8369Y-0.7
X1.8869Y-0.1337
X1.9869Y-0.14
X2.0369Y-0.7585
X2.0369Y-1.1191
X2.0969Y-1.12
X2.1819Y-0.73
X2.1869Y-0.18
X2.2869Y-1.12
X2.2969Y-0.2
X2.3369Y-1.0906
X2.3869Y-0.2
X2.4781Y-0.5865
T2
X0.2016Y-0.15
X0.3Y-0.15
X0.4516Y-0.15
X0.5369Y-0.3
X0.5369Y-0.9
X0.55Y-0.15
X0.6369Y-0.3
X0.6369Y-0.9
X0.7369Y-0.3
X0.7369Y-0.9
X0.8369Y-0.3
X0.8369Y-0.9
X0.9369Y-0.3
X0.9369Y-0.9
X1.0369Y-0.3
X1.0369Y-0.9
X1.1369Y-0.3
X1.1369Y-0.9
X1.2369Y-0.3
X1.2369Y-0.9
X1.3369Y-0.3
X1.3369Y-0.9
X1.4369Y-0.3
X1.4369Y-0.9
X1.5369Y-0.3
X1.5369Y-0.9
X1.6369Y-0.3
X1.6369Y-0.9
X1.7369Y-0.3
X1.7369Y-0.9
X1.8369Y-0.3
X1.8369Y-0.9
X1.9369Y-0.3
X1.9369Y-0.9
X2.0369Y-0.3
X2.0369Y-0.9
X2.1369Y-0.3
X2.1369Y-0.9
X2.2369Y-0.3
X2.2369Y-0.9
X2.3369Y-0.3
X2.3369Y-0.9
X2.4369Y-0.3
X2.4369Y-0.9
T3
X0.5369Y-0.4
X0.5369Y-1.0
X0.6369Y-0.4
X0.6369Y-1.0
X0.7369Y-0.4
X0.7369Y-1.0
X0.8369Y-0.4
X0.8369Y-1.0
X0.9369Y-0.4
X0.9369Y-1.0
X1.0369Y-0.4
X1.0369Y-1.0
X1.1369Y-0.4
X1.1369Y-1.0
X1.2369Y-0.4
X1.2369Y-1.0
X1.3369Y-0.4
X1.3369Y-1.0
X1.4369Y-0.4
X1.4369Y-1.0
X1.5369Y-0.4
X1.5369Y-1.0
X1.6369Y-0.4
X1.6369Y-1.0
X1.7369Y-0.4
X1.7369Y-1.0
X1.8369Y-0.4
X1.8369Y-1.0
X1.9369Y-0.4
X1.9369Y-1.0
X2.0369Y-0.4
X2.0369Y-1.0
X2.1369Y-0.4
X2.1369Y-1.0
X2.2369Y-0.4
X2.2369Y-1.0
X2.3369Y-0.4
X2.3369Y-1.0
X2.4369Y-0.4
X2.4369Y-1.0
X2.5369Y-0.4
X2.5369Y-1.0
M30
