%TF.GenerationSoftware,KiCad,Pcbnew,8.0.4*%
%TF.CreationDate,2024-09-01T17:43:29+09:00*%
%TF.ProjectId,uPD753adapter,75504437-3533-4616-9461-707465722e6b,rev?*%
%TF.SameCoordinates,Original*%
%TF.FileFunction,Soldermask,Bot*%
%TF.FilePolarity,Negative*%
%FSLAX46Y46*%
G04 Gerber Fmt 4.6, Leading zero omitted, Abs format (unit mm)*
G04 Created by KiCad (PCBNEW 8.0.4) date 2024-09-01 17:43:29*
%MOMM*%
%LPD*%
G01*
G04 APERTURE LIST*
%ADD10R,1.440000X2.000000*%
%ADD11O,1.440000X2.000000*%
%ADD12C,1.600000*%
%ADD13R,1.600000X1.600000*%
%ADD14O,1.600000X1.600000*%
G04 APERTURE END LIST*
D10*
%TO.C,J1*%
X13638000Y-25400000D03*
D11*
X16178000Y-25400000D03*
X18718000Y-25400000D03*
X21258000Y-25400000D03*
X23798000Y-25400000D03*
X26338000Y-25400000D03*
X28878000Y-25400000D03*
X31418000Y-25400000D03*
X33958000Y-25400000D03*
X36498000Y-25400000D03*
X39038000Y-25400000D03*
X41578000Y-25400000D03*
X44118000Y-25400000D03*
X46658000Y-25400000D03*
X49198000Y-25400000D03*
X51738000Y-25400000D03*
X54278000Y-25400000D03*
X56818000Y-25400000D03*
X59358000Y-25400000D03*
X61898000Y-25400000D03*
X64438000Y-25400000D03*
X64438000Y-10160000D03*
X61898000Y-10160000D03*
X59358000Y-10160000D03*
X56818000Y-10160000D03*
X54278000Y-10160000D03*
X51738000Y-10160000D03*
X49198000Y-10160000D03*
X46658000Y-10160000D03*
X44118000Y-10160000D03*
X41578000Y-10160000D03*
X39038000Y-10160000D03*
X36498000Y-10160000D03*
X33958000Y-10160000D03*
X31418000Y-10160000D03*
X28878000Y-10160000D03*
X26338000Y-10160000D03*
X23798000Y-10160000D03*
X21258000Y-10160000D03*
X18718000Y-10160000D03*
X16178000Y-10160000D03*
X13638000Y-10160000D03*
%TD*%
D12*
%TO.C,C2*%
X13970000Y-3810000D03*
X11470000Y-3810000D03*
%TD*%
D13*
%TO.C,J2*%
X13638000Y-22860000D03*
D14*
X16178000Y-22860000D03*
X18718000Y-22860000D03*
X21258000Y-22860000D03*
X23798000Y-22860000D03*
X26338000Y-22860000D03*
X28878000Y-22860000D03*
X31418000Y-22860000D03*
X33958000Y-22860000D03*
X36498000Y-22860000D03*
X39038000Y-22860000D03*
X41578000Y-22860000D03*
X44118000Y-22860000D03*
X46658000Y-22860000D03*
X49198000Y-22860000D03*
X51738000Y-22860000D03*
X54278000Y-22860000D03*
X56818000Y-22860000D03*
X59358000Y-22860000D03*
X61898000Y-22860000D03*
X61898000Y-7620000D03*
X59358000Y-7620000D03*
X56818000Y-7620000D03*
X54278000Y-7620000D03*
X51738000Y-7620000D03*
X49198000Y-7620000D03*
X46658000Y-7620000D03*
X44118000Y-7620000D03*
X41578000Y-7620000D03*
X39038000Y-7620000D03*
X36498000Y-7620000D03*
X33958000Y-7620000D03*
X31418000Y-7620000D03*
X28878000Y-7620000D03*
X26338000Y-7620000D03*
X23798000Y-7620000D03*
X21258000Y-7620000D03*
X18718000Y-7620000D03*
X16178000Y-7620000D03*
X13638000Y-7620000D03*
%TD*%
D12*
%TO.C,C1*%
X7620000Y-3810000D03*
X5120000Y-3810000D03*
%TD*%
M02*
