%TF.GenerationSoftware,KiCad,Pcbnew,8.0.4*%
%TF.CreationDate,2024-09-01T17:43:29+09:00*%
%TF.ProjectId,uPD753adapter,75504437-3533-4616-9461-707465722e6b,rev?*%
%TF.SameCoordinates,Original*%
%TF.FileFunction,Legend,Top*%
%TF.FilePolarity,Positive*%
%FSLAX46Y46*%
G04 Gerber Fmt 4.6, Leading zero omitted, Abs format (unit mm)*
G04 Created by KiCad (PCBNEW 8.0.4) date 2024-09-01 17:43:29*
%MOMM*%
%LPD*%
G01*
G04 APERTURE LIST*
%ADD10C,0.300000*%
%ADD11C,0.150000*%
%ADD12C,0.120000*%
G04 APERTURE END LIST*
D10*
X8817368Y-31820828D02*
X8817368Y-32820828D01*
X8174510Y-31820828D02*
X8174510Y-32606542D01*
X8174510Y-32606542D02*
X8245939Y-32749400D01*
X8245939Y-32749400D02*
X8388796Y-32820828D01*
X8388796Y-32820828D02*
X8603082Y-32820828D01*
X8603082Y-32820828D02*
X8745939Y-32749400D01*
X8745939Y-32749400D02*
X8817368Y-32677971D01*
X10388796Y-32677971D02*
X10317368Y-32749400D01*
X10317368Y-32749400D02*
X10103082Y-32820828D01*
X10103082Y-32820828D02*
X9960225Y-32820828D01*
X9960225Y-32820828D02*
X9745939Y-32749400D01*
X9745939Y-32749400D02*
X9603082Y-32606542D01*
X9603082Y-32606542D02*
X9531653Y-32463685D01*
X9531653Y-32463685D02*
X9460225Y-32177971D01*
X9460225Y-32177971D02*
X9460225Y-31963685D01*
X9460225Y-31963685D02*
X9531653Y-31677971D01*
X9531653Y-31677971D02*
X9603082Y-31535114D01*
X9603082Y-31535114D02*
X9745939Y-31392257D01*
X9745939Y-31392257D02*
X9960225Y-31320828D01*
X9960225Y-31320828D02*
X10103082Y-31320828D01*
X10103082Y-31320828D02*
X10317368Y-31392257D01*
X10317368Y-31392257D02*
X10388796Y-31463685D01*
X11317368Y-31320828D02*
X11603082Y-31320828D01*
X11603082Y-31320828D02*
X11745939Y-31392257D01*
X11745939Y-31392257D02*
X11888796Y-31535114D01*
X11888796Y-31535114D02*
X11960225Y-31820828D01*
X11960225Y-31820828D02*
X11960225Y-32320828D01*
X11960225Y-32320828D02*
X11888796Y-32606542D01*
X11888796Y-32606542D02*
X11745939Y-32749400D01*
X11745939Y-32749400D02*
X11603082Y-32820828D01*
X11603082Y-32820828D02*
X11317368Y-32820828D01*
X11317368Y-32820828D02*
X11174511Y-32749400D01*
X11174511Y-32749400D02*
X11031653Y-32606542D01*
X11031653Y-32606542D02*
X10960225Y-32320828D01*
X10960225Y-32320828D02*
X10960225Y-31820828D01*
X10960225Y-31820828D02*
X11031653Y-31535114D01*
X11031653Y-31535114D02*
X11174511Y-31392257D01*
X11174511Y-31392257D02*
X11317368Y-31320828D01*
X12603082Y-32820828D02*
X12603082Y-31320828D01*
X12603082Y-31320828D02*
X13103082Y-32392257D01*
X13103082Y-32392257D02*
X13603082Y-31320828D01*
X13603082Y-31320828D02*
X13603082Y-32820828D01*
X14317368Y-32249400D02*
X15460226Y-32249400D01*
X16388797Y-31963685D02*
X16245940Y-31892257D01*
X16245940Y-31892257D02*
X16174511Y-31820828D01*
X16174511Y-31820828D02*
X16103083Y-31677971D01*
X16103083Y-31677971D02*
X16103083Y-31606542D01*
X16103083Y-31606542D02*
X16174511Y-31463685D01*
X16174511Y-31463685D02*
X16245940Y-31392257D01*
X16245940Y-31392257D02*
X16388797Y-31320828D01*
X16388797Y-31320828D02*
X16674511Y-31320828D01*
X16674511Y-31320828D02*
X16817369Y-31392257D01*
X16817369Y-31392257D02*
X16888797Y-31463685D01*
X16888797Y-31463685D02*
X16960226Y-31606542D01*
X16960226Y-31606542D02*
X16960226Y-31677971D01*
X16960226Y-31677971D02*
X16888797Y-31820828D01*
X16888797Y-31820828D02*
X16817369Y-31892257D01*
X16817369Y-31892257D02*
X16674511Y-31963685D01*
X16674511Y-31963685D02*
X16388797Y-31963685D01*
X16388797Y-31963685D02*
X16245940Y-32035114D01*
X16245940Y-32035114D02*
X16174511Y-32106542D01*
X16174511Y-32106542D02*
X16103083Y-32249400D01*
X16103083Y-32249400D02*
X16103083Y-32535114D01*
X16103083Y-32535114D02*
X16174511Y-32677971D01*
X16174511Y-32677971D02*
X16245940Y-32749400D01*
X16245940Y-32749400D02*
X16388797Y-32820828D01*
X16388797Y-32820828D02*
X16674511Y-32820828D01*
X16674511Y-32820828D02*
X16817369Y-32749400D01*
X16817369Y-32749400D02*
X16888797Y-32677971D01*
X16888797Y-32677971D02*
X16960226Y-32535114D01*
X16960226Y-32535114D02*
X16960226Y-32249400D01*
X16960226Y-32249400D02*
X16888797Y-32106542D01*
X16888797Y-32106542D02*
X16817369Y-32035114D01*
X16817369Y-32035114D02*
X16674511Y-31963685D01*
X18031654Y-33392257D02*
X17960225Y-33320828D01*
X17960225Y-33320828D02*
X17817368Y-33106542D01*
X17817368Y-33106542D02*
X17745940Y-32963685D01*
X17745940Y-32963685D02*
X17674511Y-32749400D01*
X17674511Y-32749400D02*
X17603082Y-32392257D01*
X17603082Y-32392257D02*
X17603082Y-32106542D01*
X17603082Y-32106542D02*
X17674511Y-31749400D01*
X17674511Y-31749400D02*
X17745940Y-31535114D01*
X17745940Y-31535114D02*
X17817368Y-31392257D01*
X17817368Y-31392257D02*
X17960225Y-31177971D01*
X17960225Y-31177971D02*
X18031654Y-31106542D01*
X19245940Y-31820828D02*
X19245940Y-32820828D01*
X18603082Y-31820828D02*
X18603082Y-32606542D01*
X18603082Y-32606542D02*
X18674511Y-32749400D01*
X18674511Y-32749400D02*
X18817368Y-32820828D01*
X18817368Y-32820828D02*
X19031654Y-32820828D01*
X19031654Y-32820828D02*
X19174511Y-32749400D01*
X19174511Y-32749400D02*
X19245940Y-32677971D01*
X19960225Y-32820828D02*
X19960225Y-31320828D01*
X19960225Y-31320828D02*
X20531654Y-31320828D01*
X20531654Y-31320828D02*
X20674511Y-31392257D01*
X20674511Y-31392257D02*
X20745940Y-31463685D01*
X20745940Y-31463685D02*
X20817368Y-31606542D01*
X20817368Y-31606542D02*
X20817368Y-31820828D01*
X20817368Y-31820828D02*
X20745940Y-31963685D01*
X20745940Y-31963685D02*
X20674511Y-32035114D01*
X20674511Y-32035114D02*
X20531654Y-32106542D01*
X20531654Y-32106542D02*
X19960225Y-32106542D01*
X21460225Y-32820828D02*
X21460225Y-31320828D01*
X21460225Y-31320828D02*
X21817368Y-31320828D01*
X21817368Y-31320828D02*
X22031654Y-31392257D01*
X22031654Y-31392257D02*
X22174511Y-31535114D01*
X22174511Y-31535114D02*
X22245940Y-31677971D01*
X22245940Y-31677971D02*
X22317368Y-31963685D01*
X22317368Y-31963685D02*
X22317368Y-32177971D01*
X22317368Y-32177971D02*
X22245940Y-32463685D01*
X22245940Y-32463685D02*
X22174511Y-32606542D01*
X22174511Y-32606542D02*
X22031654Y-32749400D01*
X22031654Y-32749400D02*
X21817368Y-32820828D01*
X21817368Y-32820828D02*
X21460225Y-32820828D01*
X22817368Y-31320828D02*
X23817368Y-31320828D01*
X23817368Y-31320828D02*
X23174511Y-32820828D01*
X25103082Y-31320828D02*
X24388796Y-31320828D01*
X24388796Y-31320828D02*
X24317368Y-32035114D01*
X24317368Y-32035114D02*
X24388796Y-31963685D01*
X24388796Y-31963685D02*
X24531654Y-31892257D01*
X24531654Y-31892257D02*
X24888796Y-31892257D01*
X24888796Y-31892257D02*
X25031654Y-31963685D01*
X25031654Y-31963685D02*
X25103082Y-32035114D01*
X25103082Y-32035114D02*
X25174511Y-32177971D01*
X25174511Y-32177971D02*
X25174511Y-32535114D01*
X25174511Y-32535114D02*
X25103082Y-32677971D01*
X25103082Y-32677971D02*
X25031654Y-32749400D01*
X25031654Y-32749400D02*
X24888796Y-32820828D01*
X24888796Y-32820828D02*
X24531654Y-32820828D01*
X24531654Y-32820828D02*
X24388796Y-32749400D01*
X24388796Y-32749400D02*
X24317368Y-32677971D01*
X25674510Y-31320828D02*
X26603082Y-31320828D01*
X26603082Y-31320828D02*
X26103082Y-31892257D01*
X26103082Y-31892257D02*
X26317367Y-31892257D01*
X26317367Y-31892257D02*
X26460225Y-31963685D01*
X26460225Y-31963685D02*
X26531653Y-32035114D01*
X26531653Y-32035114D02*
X26603082Y-32177971D01*
X26603082Y-32177971D02*
X26603082Y-32535114D01*
X26603082Y-32535114D02*
X26531653Y-32677971D01*
X26531653Y-32677971D02*
X26460225Y-32749400D01*
X26460225Y-32749400D02*
X26317367Y-32820828D01*
X26317367Y-32820828D02*
X25888796Y-32820828D01*
X25888796Y-32820828D02*
X25745939Y-32749400D01*
X25745939Y-32749400D02*
X25674510Y-32677971D01*
X27103081Y-33392257D02*
X27174510Y-33320828D01*
X27174510Y-33320828D02*
X27317367Y-33106542D01*
X27317367Y-33106542D02*
X27388796Y-32963685D01*
X27388796Y-32963685D02*
X27460224Y-32749400D01*
X27460224Y-32749400D02*
X27531653Y-32392257D01*
X27531653Y-32392257D02*
X27531653Y-32106542D01*
X27531653Y-32106542D02*
X27460224Y-31749400D01*
X27460224Y-31749400D02*
X27388796Y-31535114D01*
X27388796Y-31535114D02*
X27317367Y-31392257D01*
X27317367Y-31392257D02*
X27174510Y-31177971D01*
X27174510Y-31177971D02*
X27103081Y-31106542D01*
X29174510Y-31820828D02*
X29745938Y-31820828D01*
X29388795Y-31320828D02*
X29388795Y-32606542D01*
X29388795Y-32606542D02*
X29460224Y-32749400D01*
X29460224Y-32749400D02*
X29603081Y-32820828D01*
X29603081Y-32820828D02*
X29745938Y-32820828D01*
X30460224Y-32820828D02*
X30317367Y-32749400D01*
X30317367Y-32749400D02*
X30245938Y-32677971D01*
X30245938Y-32677971D02*
X30174510Y-32535114D01*
X30174510Y-32535114D02*
X30174510Y-32106542D01*
X30174510Y-32106542D02*
X30245938Y-31963685D01*
X30245938Y-31963685D02*
X30317367Y-31892257D01*
X30317367Y-31892257D02*
X30460224Y-31820828D01*
X30460224Y-31820828D02*
X30674510Y-31820828D01*
X30674510Y-31820828D02*
X30817367Y-31892257D01*
X30817367Y-31892257D02*
X30888796Y-31963685D01*
X30888796Y-31963685D02*
X30960224Y-32106542D01*
X30960224Y-32106542D02*
X30960224Y-32535114D01*
X30960224Y-32535114D02*
X30888796Y-32677971D01*
X30888796Y-32677971D02*
X30817367Y-32749400D01*
X30817367Y-32749400D02*
X30674510Y-32820828D01*
X30674510Y-32820828D02*
X30460224Y-32820828D01*
X32960224Y-31963685D02*
X32817367Y-31892257D01*
X32817367Y-31892257D02*
X32745938Y-31820828D01*
X32745938Y-31820828D02*
X32674510Y-31677971D01*
X32674510Y-31677971D02*
X32674510Y-31606542D01*
X32674510Y-31606542D02*
X32745938Y-31463685D01*
X32745938Y-31463685D02*
X32817367Y-31392257D01*
X32817367Y-31392257D02*
X32960224Y-31320828D01*
X32960224Y-31320828D02*
X33245938Y-31320828D01*
X33245938Y-31320828D02*
X33388796Y-31392257D01*
X33388796Y-31392257D02*
X33460224Y-31463685D01*
X33460224Y-31463685D02*
X33531653Y-31606542D01*
X33531653Y-31606542D02*
X33531653Y-31677971D01*
X33531653Y-31677971D02*
X33460224Y-31820828D01*
X33460224Y-31820828D02*
X33388796Y-31892257D01*
X33388796Y-31892257D02*
X33245938Y-31963685D01*
X33245938Y-31963685D02*
X32960224Y-31963685D01*
X32960224Y-31963685D02*
X32817367Y-32035114D01*
X32817367Y-32035114D02*
X32745938Y-32106542D01*
X32745938Y-32106542D02*
X32674510Y-32249400D01*
X32674510Y-32249400D02*
X32674510Y-32535114D01*
X32674510Y-32535114D02*
X32745938Y-32677971D01*
X32745938Y-32677971D02*
X32817367Y-32749400D01*
X32817367Y-32749400D02*
X32960224Y-32820828D01*
X32960224Y-32820828D02*
X33245938Y-32820828D01*
X33245938Y-32820828D02*
X33388796Y-32749400D01*
X33388796Y-32749400D02*
X33460224Y-32677971D01*
X33460224Y-32677971D02*
X33531653Y-32535114D01*
X33531653Y-32535114D02*
X33531653Y-32249400D01*
X33531653Y-32249400D02*
X33460224Y-32106542D01*
X33460224Y-32106542D02*
X33388796Y-32035114D01*
X33388796Y-32035114D02*
X33245938Y-31963685D01*
X34460224Y-31320828D02*
X34603081Y-31320828D01*
X34603081Y-31320828D02*
X34745938Y-31392257D01*
X34745938Y-31392257D02*
X34817367Y-31463685D01*
X34817367Y-31463685D02*
X34888795Y-31606542D01*
X34888795Y-31606542D02*
X34960224Y-31892257D01*
X34960224Y-31892257D02*
X34960224Y-32249400D01*
X34960224Y-32249400D02*
X34888795Y-32535114D01*
X34888795Y-32535114D02*
X34817367Y-32677971D01*
X34817367Y-32677971D02*
X34745938Y-32749400D01*
X34745938Y-32749400D02*
X34603081Y-32820828D01*
X34603081Y-32820828D02*
X34460224Y-32820828D01*
X34460224Y-32820828D02*
X34317367Y-32749400D01*
X34317367Y-32749400D02*
X34245938Y-32677971D01*
X34245938Y-32677971D02*
X34174509Y-32535114D01*
X34174509Y-32535114D02*
X34103081Y-32249400D01*
X34103081Y-32249400D02*
X34103081Y-31892257D01*
X34103081Y-31892257D02*
X34174509Y-31606542D01*
X34174509Y-31606542D02*
X34245938Y-31463685D01*
X34245938Y-31463685D02*
X34317367Y-31392257D01*
X34317367Y-31392257D02*
X34460224Y-31320828D01*
X35817366Y-31963685D02*
X35674509Y-31892257D01*
X35674509Y-31892257D02*
X35603080Y-31820828D01*
X35603080Y-31820828D02*
X35531652Y-31677971D01*
X35531652Y-31677971D02*
X35531652Y-31606542D01*
X35531652Y-31606542D02*
X35603080Y-31463685D01*
X35603080Y-31463685D02*
X35674509Y-31392257D01*
X35674509Y-31392257D02*
X35817366Y-31320828D01*
X35817366Y-31320828D02*
X36103080Y-31320828D01*
X36103080Y-31320828D02*
X36245938Y-31392257D01*
X36245938Y-31392257D02*
X36317366Y-31463685D01*
X36317366Y-31463685D02*
X36388795Y-31606542D01*
X36388795Y-31606542D02*
X36388795Y-31677971D01*
X36388795Y-31677971D02*
X36317366Y-31820828D01*
X36317366Y-31820828D02*
X36245938Y-31892257D01*
X36245938Y-31892257D02*
X36103080Y-31963685D01*
X36103080Y-31963685D02*
X35817366Y-31963685D01*
X35817366Y-31963685D02*
X35674509Y-32035114D01*
X35674509Y-32035114D02*
X35603080Y-32106542D01*
X35603080Y-32106542D02*
X35531652Y-32249400D01*
X35531652Y-32249400D02*
X35531652Y-32535114D01*
X35531652Y-32535114D02*
X35603080Y-32677971D01*
X35603080Y-32677971D02*
X35674509Y-32749400D01*
X35674509Y-32749400D02*
X35817366Y-32820828D01*
X35817366Y-32820828D02*
X36103080Y-32820828D01*
X36103080Y-32820828D02*
X36245938Y-32749400D01*
X36245938Y-32749400D02*
X36317366Y-32677971D01*
X36317366Y-32677971D02*
X36388795Y-32535114D01*
X36388795Y-32535114D02*
X36388795Y-32249400D01*
X36388795Y-32249400D02*
X36317366Y-32106542D01*
X36317366Y-32106542D02*
X36245938Y-32035114D01*
X36245938Y-32035114D02*
X36103080Y-31963685D01*
X37317366Y-31320828D02*
X37460223Y-31320828D01*
X37460223Y-31320828D02*
X37603080Y-31392257D01*
X37603080Y-31392257D02*
X37674509Y-31463685D01*
X37674509Y-31463685D02*
X37745937Y-31606542D01*
X37745937Y-31606542D02*
X37817366Y-31892257D01*
X37817366Y-31892257D02*
X37817366Y-32249400D01*
X37817366Y-32249400D02*
X37745937Y-32535114D01*
X37745937Y-32535114D02*
X37674509Y-32677971D01*
X37674509Y-32677971D02*
X37603080Y-32749400D01*
X37603080Y-32749400D02*
X37460223Y-32820828D01*
X37460223Y-32820828D02*
X37317366Y-32820828D01*
X37317366Y-32820828D02*
X37174509Y-32749400D01*
X37174509Y-32749400D02*
X37103080Y-32677971D01*
X37103080Y-32677971D02*
X37031651Y-32535114D01*
X37031651Y-32535114D02*
X36960223Y-32249400D01*
X36960223Y-32249400D02*
X36960223Y-31892257D01*
X36960223Y-31892257D02*
X37031651Y-31606542D01*
X37031651Y-31606542D02*
X37103080Y-31463685D01*
X37103080Y-31463685D02*
X37174509Y-31392257D01*
X37174509Y-31392257D02*
X37317366Y-31320828D01*
X39531651Y-32392257D02*
X40245937Y-32392257D01*
X39388794Y-32820828D02*
X39888794Y-31320828D01*
X39888794Y-31320828D02*
X40388794Y-32820828D01*
X41531651Y-32820828D02*
X41531651Y-31320828D01*
X41531651Y-32749400D02*
X41388793Y-32820828D01*
X41388793Y-32820828D02*
X41103079Y-32820828D01*
X41103079Y-32820828D02*
X40960222Y-32749400D01*
X40960222Y-32749400D02*
X40888793Y-32677971D01*
X40888793Y-32677971D02*
X40817365Y-32535114D01*
X40817365Y-32535114D02*
X40817365Y-32106542D01*
X40817365Y-32106542D02*
X40888793Y-31963685D01*
X40888793Y-31963685D02*
X40960222Y-31892257D01*
X40960222Y-31892257D02*
X41103079Y-31820828D01*
X41103079Y-31820828D02*
X41388793Y-31820828D01*
X41388793Y-31820828D02*
X41531651Y-31892257D01*
X42888794Y-32820828D02*
X42888794Y-32035114D01*
X42888794Y-32035114D02*
X42817365Y-31892257D01*
X42817365Y-31892257D02*
X42674508Y-31820828D01*
X42674508Y-31820828D02*
X42388794Y-31820828D01*
X42388794Y-31820828D02*
X42245936Y-31892257D01*
X42888794Y-32749400D02*
X42745936Y-32820828D01*
X42745936Y-32820828D02*
X42388794Y-32820828D01*
X42388794Y-32820828D02*
X42245936Y-32749400D01*
X42245936Y-32749400D02*
X42174508Y-32606542D01*
X42174508Y-32606542D02*
X42174508Y-32463685D01*
X42174508Y-32463685D02*
X42245936Y-32320828D01*
X42245936Y-32320828D02*
X42388794Y-32249400D01*
X42388794Y-32249400D02*
X42745936Y-32249400D01*
X42745936Y-32249400D02*
X42888794Y-32177971D01*
X43603079Y-31820828D02*
X43603079Y-33320828D01*
X43603079Y-31892257D02*
X43745937Y-31820828D01*
X43745937Y-31820828D02*
X44031651Y-31820828D01*
X44031651Y-31820828D02*
X44174508Y-31892257D01*
X44174508Y-31892257D02*
X44245937Y-31963685D01*
X44245937Y-31963685D02*
X44317365Y-32106542D01*
X44317365Y-32106542D02*
X44317365Y-32535114D01*
X44317365Y-32535114D02*
X44245937Y-32677971D01*
X44245937Y-32677971D02*
X44174508Y-32749400D01*
X44174508Y-32749400D02*
X44031651Y-32820828D01*
X44031651Y-32820828D02*
X43745937Y-32820828D01*
X43745937Y-32820828D02*
X43603079Y-32749400D01*
X44745937Y-31820828D02*
X45317365Y-31820828D01*
X44960222Y-31320828D02*
X44960222Y-32606542D01*
X44960222Y-32606542D02*
X45031651Y-32749400D01*
X45031651Y-32749400D02*
X45174508Y-32820828D01*
X45174508Y-32820828D02*
X45317365Y-32820828D01*
X46388794Y-32749400D02*
X46245937Y-32820828D01*
X46245937Y-32820828D02*
X45960223Y-32820828D01*
X45960223Y-32820828D02*
X45817365Y-32749400D01*
X45817365Y-32749400D02*
X45745937Y-32606542D01*
X45745937Y-32606542D02*
X45745937Y-32035114D01*
X45745937Y-32035114D02*
X45817365Y-31892257D01*
X45817365Y-31892257D02*
X45960223Y-31820828D01*
X45960223Y-31820828D02*
X46245937Y-31820828D01*
X46245937Y-31820828D02*
X46388794Y-31892257D01*
X46388794Y-31892257D02*
X46460223Y-32035114D01*
X46460223Y-32035114D02*
X46460223Y-32177971D01*
X46460223Y-32177971D02*
X45745937Y-32320828D01*
X47103079Y-32820828D02*
X47103079Y-31820828D01*
X47103079Y-32106542D02*
X47174508Y-31963685D01*
X47174508Y-31963685D02*
X47245937Y-31892257D01*
X47245937Y-31892257D02*
X47388794Y-31820828D01*
X47388794Y-31820828D02*
X47531651Y-31820828D01*
D11*
X49827745Y-33265342D02*
X49542031Y-33265342D01*
X49542031Y-33265342D02*
X49542031Y-31551057D01*
X49542031Y-31551057D02*
X49827745Y-31551057D01*
X50284888Y-31665342D02*
X50284888Y-32636771D01*
X50284888Y-32636771D02*
X50342031Y-32751057D01*
X50342031Y-32751057D02*
X50399174Y-32808200D01*
X50399174Y-32808200D02*
X50513459Y-32865342D01*
X50513459Y-32865342D02*
X50742031Y-32865342D01*
X50742031Y-32865342D02*
X50856316Y-32808200D01*
X50856316Y-32808200D02*
X50913459Y-32751057D01*
X50913459Y-32751057D02*
X50970602Y-32636771D01*
X50970602Y-32636771D02*
X50970602Y-31665342D01*
X51542031Y-32865342D02*
X51542031Y-31665342D01*
X51542031Y-31665342D02*
X51999174Y-31665342D01*
X51999174Y-31665342D02*
X52113459Y-31722485D01*
X52113459Y-31722485D02*
X52170602Y-31779628D01*
X52170602Y-31779628D02*
X52227745Y-31893914D01*
X52227745Y-31893914D02*
X52227745Y-32065342D01*
X52227745Y-32065342D02*
X52170602Y-32179628D01*
X52170602Y-32179628D02*
X52113459Y-32236771D01*
X52113459Y-32236771D02*
X51999174Y-32293914D01*
X51999174Y-32293914D02*
X51542031Y-32293914D01*
X52742031Y-32865342D02*
X52742031Y-31665342D01*
X52742031Y-31665342D02*
X53027745Y-31665342D01*
X53027745Y-31665342D02*
X53199174Y-31722485D01*
X53199174Y-31722485D02*
X53313459Y-31836771D01*
X53313459Y-31836771D02*
X53370602Y-31951057D01*
X53370602Y-31951057D02*
X53427745Y-32179628D01*
X53427745Y-32179628D02*
X53427745Y-32351057D01*
X53427745Y-32351057D02*
X53370602Y-32579628D01*
X53370602Y-32579628D02*
X53313459Y-32693914D01*
X53313459Y-32693914D02*
X53199174Y-32808200D01*
X53199174Y-32808200D02*
X53027745Y-32865342D01*
X53027745Y-32865342D02*
X52742031Y-32865342D01*
X53827745Y-31665342D02*
X54627745Y-31665342D01*
X54627745Y-31665342D02*
X54113459Y-32865342D01*
X55656316Y-31665342D02*
X55084888Y-31665342D01*
X55084888Y-31665342D02*
X55027745Y-32236771D01*
X55027745Y-32236771D02*
X55084888Y-32179628D01*
X55084888Y-32179628D02*
X55199174Y-32122485D01*
X55199174Y-32122485D02*
X55484888Y-32122485D01*
X55484888Y-32122485D02*
X55599174Y-32179628D01*
X55599174Y-32179628D02*
X55656316Y-32236771D01*
X55656316Y-32236771D02*
X55713459Y-32351057D01*
X55713459Y-32351057D02*
X55713459Y-32636771D01*
X55713459Y-32636771D02*
X55656316Y-32751057D01*
X55656316Y-32751057D02*
X55599174Y-32808200D01*
X55599174Y-32808200D02*
X55484888Y-32865342D01*
X55484888Y-32865342D02*
X55199174Y-32865342D01*
X55199174Y-32865342D02*
X55084888Y-32808200D01*
X55084888Y-32808200D02*
X55027745Y-32751057D01*
X56113459Y-31665342D02*
X56856316Y-31665342D01*
X56856316Y-31665342D02*
X56456316Y-32122485D01*
X56456316Y-32122485D02*
X56627745Y-32122485D01*
X56627745Y-32122485D02*
X56742031Y-32179628D01*
X56742031Y-32179628D02*
X56799173Y-32236771D01*
X56799173Y-32236771D02*
X56856316Y-32351057D01*
X56856316Y-32351057D02*
X56856316Y-32636771D01*
X56856316Y-32636771D02*
X56799173Y-32751057D01*
X56799173Y-32751057D02*
X56742031Y-32808200D01*
X56742031Y-32808200D02*
X56627745Y-32865342D01*
X56627745Y-32865342D02*
X56284888Y-32865342D01*
X56284888Y-32865342D02*
X56170602Y-32808200D01*
X56170602Y-32808200D02*
X56113459Y-32751057D01*
X57313459Y-32522485D02*
X57884888Y-32522485D01*
X57199173Y-32865342D02*
X57599173Y-31665342D01*
X57599173Y-31665342D02*
X57999173Y-32865342D01*
X58399173Y-32865342D02*
X58399173Y-31665342D01*
X58399173Y-31665342D02*
X58684887Y-31665342D01*
X58684887Y-31665342D02*
X58856316Y-31722485D01*
X58856316Y-31722485D02*
X58970601Y-31836771D01*
X58970601Y-31836771D02*
X59027744Y-31951057D01*
X59027744Y-31951057D02*
X59084887Y-32179628D01*
X59084887Y-32179628D02*
X59084887Y-32351057D01*
X59084887Y-32351057D02*
X59027744Y-32579628D01*
X59027744Y-32579628D02*
X58970601Y-32693914D01*
X58970601Y-32693914D02*
X58856316Y-32808200D01*
X58856316Y-32808200D02*
X58684887Y-32865342D01*
X58684887Y-32865342D02*
X58399173Y-32865342D01*
X59542030Y-32522485D02*
X60113459Y-32522485D01*
X59427744Y-32865342D02*
X59827744Y-31665342D01*
X59827744Y-31665342D02*
X60227744Y-32865342D01*
X60627744Y-32865342D02*
X60627744Y-31665342D01*
X60627744Y-31665342D02*
X61084887Y-31665342D01*
X61084887Y-31665342D02*
X61199172Y-31722485D01*
X61199172Y-31722485D02*
X61256315Y-31779628D01*
X61256315Y-31779628D02*
X61313458Y-31893914D01*
X61313458Y-31893914D02*
X61313458Y-32065342D01*
X61313458Y-32065342D02*
X61256315Y-32179628D01*
X61256315Y-32179628D02*
X61199172Y-32236771D01*
X61199172Y-32236771D02*
X61084887Y-32293914D01*
X61084887Y-32293914D02*
X60627744Y-32293914D01*
X61656315Y-31665342D02*
X62342030Y-31665342D01*
X61999172Y-32865342D02*
X61999172Y-31665342D01*
X62742030Y-32236771D02*
X63142030Y-32236771D01*
X63313458Y-32865342D02*
X62742030Y-32865342D01*
X62742030Y-32865342D02*
X62742030Y-31665342D01*
X62742030Y-31665342D02*
X63313458Y-31665342D01*
X64513458Y-32865342D02*
X64113458Y-32293914D01*
X63827744Y-32865342D02*
X63827744Y-31665342D01*
X63827744Y-31665342D02*
X64284887Y-31665342D01*
X64284887Y-31665342D02*
X64399172Y-31722485D01*
X64399172Y-31722485D02*
X64456315Y-31779628D01*
X64456315Y-31779628D02*
X64513458Y-31893914D01*
X64513458Y-31893914D02*
X64513458Y-32065342D01*
X64513458Y-32065342D02*
X64456315Y-32179628D01*
X64456315Y-32179628D02*
X64399172Y-32236771D01*
X64399172Y-32236771D02*
X64284887Y-32293914D01*
X64284887Y-32293914D02*
X63827744Y-32293914D01*
X64913458Y-33265342D02*
X65199172Y-33265342D01*
X65199172Y-33265342D02*
X65199172Y-31551057D01*
X65199172Y-31551057D02*
X64913458Y-31551057D01*
X65827744Y-32865342D02*
X65827744Y-32065342D01*
X65827744Y-32293914D02*
X65884887Y-32179628D01*
X65884887Y-32179628D02*
X65942030Y-32122485D01*
X65942030Y-32122485D02*
X66056315Y-32065342D01*
X66056315Y-32065342D02*
X66170601Y-32065342D01*
X67027744Y-32808200D02*
X66913458Y-32865342D01*
X66913458Y-32865342D02*
X66684887Y-32865342D01*
X66684887Y-32865342D02*
X66570601Y-32808200D01*
X66570601Y-32808200D02*
X66513458Y-32693914D01*
X66513458Y-32693914D02*
X66513458Y-32236771D01*
X66513458Y-32236771D02*
X66570601Y-32122485D01*
X66570601Y-32122485D02*
X66684887Y-32065342D01*
X66684887Y-32065342D02*
X66913458Y-32065342D01*
X66913458Y-32065342D02*
X67027744Y-32122485D01*
X67027744Y-32122485D02*
X67084887Y-32236771D01*
X67084887Y-32236771D02*
X67084887Y-32351057D01*
X67084887Y-32351057D02*
X66513458Y-32465342D01*
X67484886Y-32065342D02*
X67770600Y-32865342D01*
X67770600Y-32865342D02*
X68056315Y-32065342D01*
X68513458Y-32751057D02*
X68570601Y-32808200D01*
X68570601Y-32808200D02*
X68513458Y-32865342D01*
X68513458Y-32865342D02*
X68456315Y-32808200D01*
X68456315Y-32808200D02*
X68513458Y-32751057D01*
X68513458Y-32751057D02*
X68513458Y-32865342D01*
X69713458Y-32865342D02*
X69027744Y-32865342D01*
X69370601Y-32865342D02*
X69370601Y-31665342D01*
X69370601Y-31665342D02*
X69256315Y-31836771D01*
X69256315Y-31836771D02*
X69142030Y-31951057D01*
X69142030Y-31951057D02*
X69027744Y-32008200D01*
X70227744Y-32751057D02*
X70284887Y-32808200D01*
X70284887Y-32808200D02*
X70227744Y-32865342D01*
X70227744Y-32865342D02*
X70170601Y-32808200D01*
X70170601Y-32808200D02*
X70227744Y-32751057D01*
X70227744Y-32751057D02*
X70227744Y-32865342D01*
X71027744Y-31665342D02*
X71142030Y-31665342D01*
X71142030Y-31665342D02*
X71256316Y-31722485D01*
X71256316Y-31722485D02*
X71313459Y-31779628D01*
X71313459Y-31779628D02*
X71370601Y-31893914D01*
X71370601Y-31893914D02*
X71427744Y-32122485D01*
X71427744Y-32122485D02*
X71427744Y-32408200D01*
X71427744Y-32408200D02*
X71370601Y-32636771D01*
X71370601Y-32636771D02*
X71313459Y-32751057D01*
X71313459Y-32751057D02*
X71256316Y-32808200D01*
X71256316Y-32808200D02*
X71142030Y-32865342D01*
X71142030Y-32865342D02*
X71027744Y-32865342D01*
X71027744Y-32865342D02*
X70913459Y-32808200D01*
X70913459Y-32808200D02*
X70856316Y-32751057D01*
X70856316Y-32751057D02*
X70799173Y-32636771D01*
X70799173Y-32636771D02*
X70742030Y-32408200D01*
X70742030Y-32408200D02*
X70742030Y-32122485D01*
X70742030Y-32122485D02*
X70799173Y-31893914D01*
X70799173Y-31893914D02*
X70856316Y-31779628D01*
X70856316Y-31779628D02*
X70913459Y-31722485D01*
X70913459Y-31722485D02*
X71027744Y-31665342D01*
X1532819Y-18113333D02*
X2247104Y-18113333D01*
X2247104Y-18113333D02*
X2389961Y-18160952D01*
X2389961Y-18160952D02*
X2485200Y-18256190D01*
X2485200Y-18256190D02*
X2532819Y-18399047D01*
X2532819Y-18399047D02*
X2532819Y-18494285D01*
X2532819Y-17113333D02*
X2532819Y-17684761D01*
X2532819Y-17399047D02*
X1532819Y-17399047D01*
X1532819Y-17399047D02*
X1675676Y-17494285D01*
X1675676Y-17494285D02*
X1770914Y-17589523D01*
X1770914Y-17589523D02*
X1818533Y-17684761D01*
X12573333Y-2264580D02*
X12525714Y-2312200D01*
X12525714Y-2312200D02*
X12382857Y-2359819D01*
X12382857Y-2359819D02*
X12287619Y-2359819D01*
X12287619Y-2359819D02*
X12144762Y-2312200D01*
X12144762Y-2312200D02*
X12049524Y-2216961D01*
X12049524Y-2216961D02*
X12001905Y-2121723D01*
X12001905Y-2121723D02*
X11954286Y-1931247D01*
X11954286Y-1931247D02*
X11954286Y-1788390D01*
X11954286Y-1788390D02*
X12001905Y-1597914D01*
X12001905Y-1597914D02*
X12049524Y-1502676D01*
X12049524Y-1502676D02*
X12144762Y-1407438D01*
X12144762Y-1407438D02*
X12287619Y-1359819D01*
X12287619Y-1359819D02*
X12382857Y-1359819D01*
X12382857Y-1359819D02*
X12525714Y-1407438D01*
X12525714Y-1407438D02*
X12573333Y-1455057D01*
X12954286Y-1455057D02*
X13001905Y-1407438D01*
X13001905Y-1407438D02*
X13097143Y-1359819D01*
X13097143Y-1359819D02*
X13335238Y-1359819D01*
X13335238Y-1359819D02*
X13430476Y-1407438D01*
X13430476Y-1407438D02*
X13478095Y-1455057D01*
X13478095Y-1455057D02*
X13525714Y-1550295D01*
X13525714Y-1550295D02*
X13525714Y-1645533D01*
X13525714Y-1645533D02*
X13478095Y-1788390D01*
X13478095Y-1788390D02*
X12906667Y-2359819D01*
X12906667Y-2359819D02*
X13525714Y-2359819D01*
X10762819Y-15573333D02*
X11477104Y-15573333D01*
X11477104Y-15573333D02*
X11619961Y-15620952D01*
X11619961Y-15620952D02*
X11715200Y-15716190D01*
X11715200Y-15716190D02*
X11762819Y-15859047D01*
X11762819Y-15859047D02*
X11762819Y-15954285D01*
X10858057Y-15144761D02*
X10810438Y-15097142D01*
X10810438Y-15097142D02*
X10762819Y-15001904D01*
X10762819Y-15001904D02*
X10762819Y-14763809D01*
X10762819Y-14763809D02*
X10810438Y-14668571D01*
X10810438Y-14668571D02*
X10858057Y-14620952D01*
X10858057Y-14620952D02*
X10953295Y-14573333D01*
X10953295Y-14573333D02*
X11048533Y-14573333D01*
X11048533Y-14573333D02*
X11191390Y-14620952D01*
X11191390Y-14620952D02*
X11762819Y-15192380D01*
X11762819Y-15192380D02*
X11762819Y-14573333D01*
X6183333Y-2264580D02*
X6135714Y-2312200D01*
X6135714Y-2312200D02*
X5992857Y-2359819D01*
X5992857Y-2359819D02*
X5897619Y-2359819D01*
X5897619Y-2359819D02*
X5754762Y-2312200D01*
X5754762Y-2312200D02*
X5659524Y-2216961D01*
X5659524Y-2216961D02*
X5611905Y-2121723D01*
X5611905Y-2121723D02*
X5564286Y-1931247D01*
X5564286Y-1931247D02*
X5564286Y-1788390D01*
X5564286Y-1788390D02*
X5611905Y-1597914D01*
X5611905Y-1597914D02*
X5659524Y-1502676D01*
X5659524Y-1502676D02*
X5754762Y-1407438D01*
X5754762Y-1407438D02*
X5897619Y-1359819D01*
X5897619Y-1359819D02*
X5992857Y-1359819D01*
X5992857Y-1359819D02*
X6135714Y-1407438D01*
X6135714Y-1407438D02*
X6183333Y-1455057D01*
X7135714Y-2359819D02*
X6564286Y-2359819D01*
X6850000Y-2359819D02*
X6850000Y-1359819D01*
X6850000Y-1359819D02*
X6754762Y-1502676D01*
X6754762Y-1502676D02*
X6659524Y-1597914D01*
X6659524Y-1597914D02*
X6564286Y-1645533D01*
D12*
%TO.C,J1*%
X2978000Y-6230000D02*
X2978000Y-29330000D01*
X2978000Y-27050000D02*
X5238000Y-27050000D01*
X2978000Y-29330000D02*
X4838000Y-29330000D01*
X9738000Y-29330000D02*
X71378000Y-29330000D01*
X14908000Y-30350000D02*
X12368000Y-30350000D01*
X71378000Y-6230000D02*
X2978000Y-6230000D01*
X71378000Y-29330000D02*
X71378000Y-6230000D01*
X9838000Y-28600000D02*
G75*
G02*
X4738000Y-28600000I-2550000J0D01*
G01*
X4738000Y-28600000D02*
G75*
G02*
X9838000Y-28600000I2550000J0D01*
G01*
X8188000Y-28600000D02*
G75*
G02*
X6388000Y-28600000I-900000J0D01*
G01*
X6388000Y-28600000D02*
G75*
G02*
X8188000Y-28600000I900000J0D01*
G01*
%TO.C,C2*%
X10170000Y-4810000D02*
X10170000Y-2810000D01*
X15270000Y-2810000D02*
X10170000Y-2810000D01*
X15270000Y-4810000D02*
X10170000Y-4810000D01*
X15270000Y-4810000D02*
X15270000Y-2810000D01*
%TO.C,J2*%
X12248000Y-6290000D02*
X12248000Y-24190000D01*
X12248000Y-24190000D02*
X63288000Y-24190000D01*
X12308000Y-8780000D02*
X12308000Y-14240000D01*
X12308000Y-16240000D02*
X12308000Y-21700000D01*
X12308000Y-21700000D02*
X63228000Y-21700000D01*
X63228000Y-8780000D02*
X12308000Y-8780000D01*
X63228000Y-21700000D02*
X63228000Y-8780000D01*
X63288000Y-6290000D02*
X12248000Y-6290000D01*
X63288000Y-24190000D02*
X63288000Y-6290000D01*
X12308000Y-14240000D02*
G75*
G02*
X12308000Y-16240000I0J-1000000D01*
G01*
%TO.C,C1*%
X3820000Y-4810000D02*
X3820000Y-2810000D01*
X8920000Y-2810000D02*
X3820000Y-2810000D01*
X8920000Y-4810000D02*
X3820000Y-4810000D01*
X8920000Y-4810000D02*
X8920000Y-2810000D01*
%TD*%
M02*
