%TF.GenerationSoftware,KiCad,Pcbnew,8.0.4*%
%TF.CreationDate,2024-09-01T17:43:29+09:00*%
%TF.ProjectId,uPD753adapter,75504437-3533-4616-9461-707465722e6b,rev?*%
%TF.SameCoordinates,Original*%
%TF.FileFunction,Copper,L1,Top*%
%TF.FilePolarity,Positive*%
%FSLAX46Y46*%
G04 Gerber Fmt 4.6, Leading zero omitted, Abs format (unit mm)*
G04 Created by KiCad (PCBNEW 8.0.4) date 2024-09-01 17:43:29*
%MOMM*%
%LPD*%
G01*
G04 APERTURE LIST*
%TA.AperFunction,ComponentPad*%
%ADD10R,1.440000X2.000000*%
%TD*%
%TA.AperFunction,ComponentPad*%
%ADD11O,1.440000X2.000000*%
%TD*%
%TA.AperFunction,ComponentPad*%
%ADD12C,1.600000*%
%TD*%
%TA.AperFunction,ComponentPad*%
%ADD13R,1.600000X1.600000*%
%TD*%
%TA.AperFunction,ComponentPad*%
%ADD14O,1.600000X1.600000*%
%TD*%
%TA.AperFunction,ViaPad*%
%ADD15C,0.800000*%
%TD*%
%TA.AperFunction,Conductor*%
%ADD16C,2.000000*%
%TD*%
%TA.AperFunction,Conductor*%
%ADD17C,0.500000*%
%TD*%
%TA.AperFunction,Conductor*%
%ADD18C,0.250000*%
%TD*%
%TA.AperFunction,Conductor*%
%ADD19C,1.000000*%
%TD*%
%TA.AperFunction,Conductor*%
%ADD20C,0.400000*%
%TD*%
G04 APERTURE END LIST*
D10*
%TO.P,J1,1,Pin_1*%
%TO.N,READY*%
X13638000Y-25400000D03*
D11*
%TO.P,J1,2,Pin_2*%
%TO.N,WAIT*%
X16178000Y-25400000D03*
%TO.P,J1,3,Pin_3*%
%TO.N,SYNC*%
X18718000Y-25400000D03*
%TO.P,J1,4,Pin_4*%
%TO.N,INT*%
X21258000Y-25400000D03*
%TO.P,J1,5,Pin_5*%
%TO.N,INTE*%
X23798000Y-25400000D03*
%TO.P,J1,6,Pin_6*%
%TO.N,WR_n*%
X26338000Y-25400000D03*
%TO.P,J1,7,Pin_7*%
%TO.N,DBIN*%
X28878000Y-25400000D03*
%TO.P,J1,8,Pin_8*%
%TO.N,CLK1*%
X31418000Y-25400000D03*
%TO.P,J1,9,Pin_9*%
%TO.N,unconnected-(J1-Pin_9-Pad9)*%
X33958000Y-25400000D03*
%TO.P,J1,10,Pin_10*%
%TO.N,unconnected-(J1-Pin_10-Pad10)*%
X36498000Y-25400000D03*
%TO.P,J1,11,Pin_11*%
%TO.N,CLK2*%
X39038000Y-25400000D03*
%TO.P,J1,12,Pin_12*%
%TO.N,D0*%
X41578000Y-25400000D03*
%TO.P,J1,13,Pin_13*%
%TO.N,D1*%
X44118000Y-25400000D03*
%TO.P,J1,14,Pin_14*%
%TO.N,D2*%
X46658000Y-25400000D03*
%TO.P,J1,15,Pin_15*%
%TO.N,D3*%
X49198000Y-25400000D03*
%TO.P,J1,16,Pin_16*%
%TO.N,D4*%
X51738000Y-25400000D03*
%TO.P,J1,17,Pin_17*%
%TO.N,D5*%
X54278000Y-25400000D03*
%TO.P,J1,18,Pin_18*%
%TO.N,D6*%
X56818000Y-25400000D03*
%TO.P,J1,19,Pin_19*%
%TO.N,D7*%
X59358000Y-25400000D03*
%TO.P,J1,20,Pin_20*%
%TO.N,GND*%
X61898000Y-25400000D03*
%TO.P,J1,21,Pin_21*%
%TO.N,-5V*%
X64438000Y-25400000D03*
%TO.P,J1,22,Pin_22*%
%TO.N,A0*%
X64438000Y-10160000D03*
%TO.P,J1,23,Pin_23*%
%TO.N,A1*%
X61898000Y-10160000D03*
%TO.P,J1,24,Pin_24*%
%TO.N,A2*%
X59358000Y-10160000D03*
%TO.P,J1,25,Pin_25*%
%TO.N,A3*%
X56818000Y-10160000D03*
%TO.P,J1,26,Pin_26*%
%TO.N,A4*%
X54278000Y-10160000D03*
%TO.P,J1,27,Pin_27*%
%TO.N,A5*%
X51738000Y-10160000D03*
%TO.P,J1,28,Pin_28*%
%TO.N,A6*%
X49198000Y-10160000D03*
%TO.P,J1,29,Pin_29*%
%TO.N,A7*%
X46658000Y-10160000D03*
%TO.P,J1,30,Pin_30*%
%TO.N,A8*%
X44118000Y-10160000D03*
%TO.P,J1,31,Pin_31*%
%TO.N,A9*%
X41578000Y-10160000D03*
%TO.P,J1,32,Pin_32*%
%TO.N,A10*%
X39038000Y-10160000D03*
%TO.P,J1,33,Pin_33*%
%TO.N,A11*%
X36498000Y-10160000D03*
%TO.P,J1,34,Pin_34*%
%TO.N,A12*%
X33958000Y-10160000D03*
%TO.P,J1,35,Pin_35*%
%TO.N,A13*%
X31418000Y-10160000D03*
%TO.P,J1,36,Pin_36*%
%TO.N,A14*%
X28878000Y-10160000D03*
%TO.P,J1,37,Pin_37*%
%TO.N,A15*%
X26338000Y-10160000D03*
%TO.P,J1,38,Pin_38*%
%TO.N,HLDA*%
X23798000Y-10160000D03*
%TO.P,J1,39,Pin_39*%
%TO.N,HOLD*%
X21258000Y-10160000D03*
%TO.P,J1,40,Pin_40*%
%TO.N,+5V*%
X18718000Y-10160000D03*
%TO.P,J1,41,Pin_41*%
%TO.N,+12V*%
X16178000Y-10160000D03*
%TO.P,J1,42,Pin_42*%
%TO.N,RESET*%
X13638000Y-10160000D03*
%TD*%
D12*
%TO.P,C2,1*%
%TO.N,+12V*%
X13970000Y-3810000D03*
%TO.P,C2,2*%
%TO.N,GND*%
X11470000Y-3810000D03*
%TD*%
D13*
%TO.P,J2,1,Pin_1*%
%TO.N,A10*%
X13638000Y-22860000D03*
D14*
%TO.P,J2,2,Pin_2*%
%TO.N,GND*%
X16178000Y-22860000D03*
%TO.P,J2,3,Pin_3*%
%TO.N,D4*%
X18718000Y-22860000D03*
%TO.P,J2,4,Pin_4*%
%TO.N,D5*%
X21258000Y-22860000D03*
%TO.P,J2,5,Pin_5*%
%TO.N,D6*%
X23798000Y-22860000D03*
%TO.P,J2,6,Pin_6*%
%TO.N,D7*%
X26338000Y-22860000D03*
%TO.P,J2,7,Pin_7*%
%TO.N,D3*%
X28878000Y-22860000D03*
%TO.P,J2,8,Pin_8*%
%TO.N,D2*%
X31418000Y-22860000D03*
%TO.P,J2,9,Pin_9*%
%TO.N,D1*%
X33958000Y-22860000D03*
%TO.P,J2,10,Pin_10*%
%TO.N,D0*%
X36498000Y-22860000D03*
%TO.P,J2,11,Pin_11*%
%TO.N,-5V*%
X39038000Y-22860000D03*
%TO.P,J2,12,Pin_12*%
%TO.N,RESET*%
X41578000Y-22860000D03*
%TO.P,J2,13,Pin_13*%
%TO.N,HOLD*%
X44118000Y-22860000D03*
%TO.P,J2,14,Pin_14*%
%TO.N,INT*%
X46658000Y-22860000D03*
%TO.P,J2,15,Pin_15*%
%TO.N,CLK2*%
X49198000Y-22860000D03*
%TO.P,J2,16,Pin_16*%
%TO.N,INTE*%
X51738000Y-22860000D03*
%TO.P,J2,17,Pin_17*%
%TO.N,DBIN*%
X54278000Y-22860000D03*
%TO.P,J2,18,Pin_18*%
%TO.N,WR_n*%
X56818000Y-22860000D03*
%TO.P,J2,19,Pin_19*%
%TO.N,SYNC*%
X59358000Y-22860000D03*
%TO.P,J2,20,Pin_20*%
%TO.N,+5V*%
X61898000Y-22860000D03*
%TO.P,J2,21,Pin_21*%
%TO.N,HLDA*%
X61898000Y-7620000D03*
%TO.P,J2,22,Pin_22*%
%TO.N,CLK1*%
X59358000Y-7620000D03*
%TO.P,J2,23,Pin_23*%
%TO.N,READY*%
X56818000Y-7620000D03*
%TO.P,J2,24,Pin_24*%
%TO.N,WAIT*%
X54278000Y-7620000D03*
%TO.P,J2,25,Pin_25*%
%TO.N,A0*%
X51738000Y-7620000D03*
%TO.P,J2,26,Pin_26*%
%TO.N,A1*%
X49198000Y-7620000D03*
%TO.P,J2,27,Pin_27*%
%TO.N,A2*%
X46658000Y-7620000D03*
%TO.P,J2,28,Pin_28*%
%TO.N,+12V*%
X44118000Y-7620000D03*
%TO.P,J2,29,Pin_29*%
%TO.N,A3*%
X41578000Y-7620000D03*
%TO.P,J2,30,Pin_30*%
%TO.N,A4*%
X39038000Y-7620000D03*
%TO.P,J2,31,Pin_31*%
%TO.N,A5*%
X36498000Y-7620000D03*
%TO.P,J2,32,Pin_32*%
%TO.N,A6*%
X33958000Y-7620000D03*
%TO.P,J2,33,Pin_33*%
%TO.N,A7*%
X31418000Y-7620000D03*
%TO.P,J2,34,Pin_34*%
%TO.N,A8*%
X28878000Y-7620000D03*
%TO.P,J2,35,Pin_35*%
%TO.N,A9*%
X26338000Y-7620000D03*
%TO.P,J2,36,Pin_36*%
%TO.N,A15*%
X23798000Y-7620000D03*
%TO.P,J2,37,Pin_37*%
%TO.N,A12*%
X21258000Y-7620000D03*
%TO.P,J2,38,Pin_38*%
%TO.N,A13*%
X18718000Y-7620000D03*
%TO.P,J2,39,Pin_39*%
%TO.N,A14*%
X16178000Y-7620000D03*
%TO.P,J2,40,Pin_40*%
%TO.N,A11*%
X13638000Y-7620000D03*
%TD*%
D12*
%TO.P,C1,1*%
%TO.N,+5V*%
X7620000Y-3810000D03*
%TO.P,C1,2*%
%TO.N,GND*%
X5120000Y-3810000D03*
%TD*%
D15*
%TO.N,WAIT*%
X53262000Y-28448000D03*
%TO.N,D4*%
X51738000Y-28425000D03*
%TO.N,A1*%
X60628000Y-5080000D03*
%TO.N,INT*%
X46658000Y-17780000D03*
%TO.N,INTE*%
X51738000Y-19267000D03*
%TO.N,D7*%
X59358000Y-27700000D03*
%TO.N,A2*%
X58342000Y-5080000D03*
%TO.N,RESET*%
X41578000Y-13970000D03*
%TO.N,A5*%
X50468000Y-3556000D03*
%TO.N,A3*%
X55548000Y-4572000D03*
%TO.N,D5*%
X55421000Y-18542000D03*
%TO.N,HLDA*%
X62943000Y-14897997D03*
X23798000Y-15494000D03*
%TO.N,HOLD*%
X21258000Y-13208000D03*
X44118000Y-13208000D03*
%TO.N,A8*%
X30148000Y-11430000D03*
%TO.N,A7*%
X32688000Y-12446000D03*
%TO.N,A10*%
X13716000Y-16510000D03*
X39116000Y-14695000D03*
%TO.N,A6*%
X47928000Y-3397000D03*
%TO.N,D6*%
X21590000Y-17780000D03*
%TO.N,READY*%
X58088000Y-28448000D03*
%TD*%
D16*
%TO.N,GND*%
X16018000Y-21240000D02*
X16018000Y-22860000D01*
X15638000Y-20860000D02*
X16018000Y-21240000D01*
X11494000Y-20860000D02*
X15638000Y-20860000D01*
X11470000Y-20884000D02*
X11494000Y-20860000D01*
D17*
%TO.N,SYNC*%
X17468000Y-20662000D02*
X21650000Y-16480000D01*
X17468000Y-24150000D02*
X17468000Y-20662000D01*
X21650000Y-16480000D02*
X57347173Y-16480000D01*
X59358000Y-18490827D02*
X59358000Y-22860000D01*
X18718000Y-25400000D02*
X17468000Y-24150000D01*
X57347173Y-16480000D02*
X59358000Y-18490827D01*
D18*
%TO.N,D6*%
X22315000Y-17055000D02*
X21590000Y-17780000D01*
X57109000Y-17055000D02*
X22315000Y-17055000D01*
X57961000Y-17907000D02*
X57109000Y-17055000D01*
X57943000Y-18179000D02*
X57961000Y-18161000D01*
X56818000Y-25400000D02*
X57943000Y-24275000D01*
X57943000Y-24275000D02*
X57943000Y-18179000D01*
X57961000Y-18161000D02*
X57961000Y-17907000D01*
%TO.N,INT*%
X23308000Y-17780000D02*
X46658000Y-17780000D01*
X20133000Y-23325991D02*
X20133000Y-20955000D01*
X20133000Y-20955000D02*
X23308000Y-17780000D01*
%TO.N,D5*%
X23288604Y-18542000D02*
X55421000Y-18542000D01*
X21258000Y-20572604D02*
X23288604Y-18542000D01*
X21258000Y-22860000D02*
X21258000Y-20572604D01*
D17*
%TO.N,GND*%
X60960000Y-21590000D02*
X62395767Y-21590000D01*
D19*
X63598000Y-23700000D02*
X65026183Y-23700000D01*
D20*
X6320000Y-2610000D02*
X10270000Y-2610000D01*
X63298000Y-24000000D02*
X61898000Y-25400000D01*
X5120000Y-3810000D02*
X6320000Y-2610000D01*
X65558000Y-26143919D02*
X65558000Y-24656081D01*
D17*
X60960000Y-25400000D02*
X60648000Y-25088000D01*
D19*
X65858000Y-24531817D02*
X65858000Y-26268183D01*
X65858000Y-26268183D02*
X65770132Y-26356051D01*
D20*
X64901919Y-24000000D02*
X63298000Y-24000000D01*
D17*
X63598000Y-22792233D02*
X63598000Y-23700000D01*
D20*
X61576919Y-30125000D02*
X65558000Y-26143919D01*
X65558000Y-24656081D02*
X64901919Y-24000000D01*
X12438000Y-26720000D02*
X15843000Y-30125000D01*
D17*
X60648000Y-21902000D02*
X60960000Y-21590000D01*
D19*
X65026183Y-23700000D02*
X65858000Y-24531817D01*
D17*
X61898000Y-25400000D02*
X60960000Y-25400000D01*
D20*
X11470000Y-3810000D02*
X11470000Y-20884000D01*
X15843000Y-30125000D02*
X61576919Y-30125000D01*
D19*
X61898000Y-25400000D02*
X63598000Y-23700000D01*
D17*
X60648000Y-25088000D02*
X60648000Y-21902000D01*
D20*
X11470000Y-20884000D02*
X12438000Y-21852000D01*
X10270000Y-2610000D02*
X11470000Y-3810000D01*
D17*
X62395767Y-21590000D02*
X63598000Y-22792233D01*
%TO.N,-5V*%
X38553370Y-26850000D02*
X62988000Y-26850000D01*
X37868000Y-26164630D02*
X38553370Y-26850000D01*
X39038000Y-22860000D02*
X37868000Y-24030000D01*
X62988000Y-26850000D02*
X64438000Y-25400000D01*
X37868000Y-24030000D02*
X37868000Y-26164630D01*
D18*
%TO.N,WAIT*%
X16178000Y-25400000D02*
X19928000Y-29150000D01*
X52560000Y-29150000D02*
X19928000Y-29150000D01*
X53262000Y-28448000D02*
X52560000Y-29150000D01*
%TO.N,A11*%
X31433991Y-6045000D02*
X15213000Y-6045000D01*
X32543000Y-7154009D02*
X32543000Y-7795991D01*
X35083000Y-8745000D02*
X36498000Y-10160000D01*
X32543000Y-7795991D02*
X33492009Y-8745000D01*
X33492009Y-8745000D02*
X35083000Y-8745000D01*
X15213000Y-6045000D02*
X13638000Y-7620000D01*
X32543000Y-7154009D02*
X31433991Y-6045000D01*
%TO.N,D4*%
X51738000Y-28425000D02*
X51663000Y-28500000D01*
X19988000Y-25887853D02*
X22600146Y-28500000D01*
X19988000Y-24130000D02*
X18718000Y-22860000D01*
X51663000Y-28500000D02*
X22600146Y-28500000D01*
X19988000Y-25887853D02*
X19988000Y-24130000D01*
%TO.N,A1*%
X49198000Y-7620000D02*
X50773000Y-6045000D01*
X50773000Y-6045000D02*
X59663000Y-6045000D01*
X59663000Y-6045000D02*
X60628000Y-5080000D01*
%TO.N,INT*%
X21258000Y-24450991D02*
X20133000Y-23325991D01*
X21258000Y-25400000D02*
X21258000Y-24450991D01*
%TO.N,INTE*%
X22673000Y-19830000D02*
X22673000Y-24275000D01*
X23200000Y-19267000D02*
X22655000Y-19812000D01*
X22655000Y-19812000D02*
X22673000Y-19830000D01*
X23798000Y-25400000D02*
X22673000Y-24275000D01*
X51738000Y-19267000D02*
X23200000Y-19267000D01*
%TO.N,A0*%
X64438000Y-10160000D02*
X64438000Y-8569009D01*
X62363991Y-6495000D02*
X52863000Y-6495000D01*
X64438000Y-8569009D02*
X62363991Y-6495000D01*
X52863000Y-6495000D02*
X51738000Y-7620000D01*
%TO.N,D7*%
X59358000Y-27700000D02*
X51611000Y-27700000D01*
X26338000Y-22860000D02*
X27608000Y-24130000D01*
X27608000Y-25887853D02*
X29420148Y-27700000D01*
X47674000Y-27709305D02*
X47674000Y-27686000D01*
X51597000Y-27686000D02*
X51611000Y-27700000D01*
X29420148Y-27700000D02*
X59358000Y-27700000D01*
X27608000Y-24130000D02*
X27608000Y-25887853D01*
X47674000Y-27686000D02*
X51597000Y-27686000D01*
%TO.N,A12*%
X32633000Y-8835000D02*
X30855000Y-8835000D01*
X22383000Y-6495000D02*
X21258000Y-7620000D01*
X30003000Y-7154009D02*
X29343991Y-6495000D01*
X22383000Y-6495000D02*
X29343991Y-6495000D01*
X30855000Y-8835000D02*
X30003000Y-7983000D01*
X33958000Y-10160000D02*
X32633000Y-8835000D01*
X30003000Y-7983000D02*
X30003000Y-7154009D01*
%TO.N,A2*%
X46658000Y-7620000D02*
X48981000Y-5297000D01*
X58125000Y-5297000D02*
X48981000Y-5297000D01*
X58342000Y-5080000D02*
X58125000Y-5297000D01*
%TO.N,RESET*%
X13638000Y-10160000D02*
X17448000Y-13970000D01*
X41578000Y-13970000D02*
X17448000Y-13970000D01*
%TO.N,A5*%
X49902000Y-4122000D02*
X39996000Y-4122000D01*
X50468000Y-3556000D02*
X49902000Y-4122000D01*
X36498000Y-7620000D02*
X39996000Y-4122000D01*
%TO.N,WR_n*%
X56818000Y-22860000D02*
X56818000Y-20574000D01*
X25213000Y-21191000D02*
X25213000Y-24275000D01*
X25213000Y-24275000D02*
X26338000Y-25400000D01*
X26412000Y-19992000D02*
X25213000Y-21191000D01*
X26412000Y-19992000D02*
X56236000Y-19992000D01*
X56236000Y-19992000D02*
X56818000Y-20574000D01*
%TO.N,A3*%
X55548000Y-4572000D02*
X44626000Y-4572000D01*
X41578000Y-7620000D02*
X44626000Y-4572000D01*
%TO.N,HLDA*%
X23798000Y-15494000D02*
X62346997Y-15494000D01*
X62346997Y-15494000D02*
X62943000Y-14897997D01*
%TO.N,HOLD*%
X21258000Y-13208000D02*
X44118000Y-13208000D01*
%TO.N,D3*%
X28878000Y-21971000D02*
X29814000Y-21035000D01*
X50341000Y-24257000D02*
X49198000Y-25400000D01*
X50341000Y-21717000D02*
X50341000Y-24257000D01*
X28878000Y-22860000D02*
X28878000Y-21971000D01*
X29814000Y-21035000D02*
X49659000Y-21035000D01*
X49659000Y-21035000D02*
X50341000Y-21717000D01*
%TO.N,A8*%
X30203000Y-11485000D02*
X42793000Y-11485000D01*
X42793000Y-11485000D02*
X44118000Y-10160000D01*
X30148000Y-11430000D02*
X30203000Y-11485000D01*
%TO.N,A7*%
X32688000Y-12446000D02*
X46150000Y-12446000D01*
X46658000Y-11938000D02*
X46658000Y-10160000D01*
X46150000Y-12446000D02*
X46658000Y-11938000D01*
%TO.N,A13*%
X30093000Y-8835000D02*
X31418000Y-10160000D01*
X20882009Y-8835000D02*
X30093000Y-8835000D01*
X19667009Y-7620000D02*
X20882009Y-8835000D01*
X18718000Y-7620000D02*
X19667009Y-7620000D01*
%TO.N,A14*%
X19081000Y-8745000D02*
X20213000Y-9877000D01*
X20213000Y-9877000D02*
X20213000Y-10948000D01*
X17303000Y-8745000D02*
X19081000Y-8745000D01*
X20750000Y-11485000D02*
X27553000Y-11485000D01*
X16178000Y-7620000D02*
X17303000Y-8745000D01*
X20213000Y-10948000D02*
X20750000Y-11485000D01*
X28878000Y-10160000D02*
X27553000Y-11485000D01*
%TO.N,A10*%
X15531000Y-14695000D02*
X13716000Y-16510000D01*
X39116000Y-14695000D02*
X15531000Y-14695000D01*
%TO.N,DBIN*%
X54278000Y-21209000D02*
X53643000Y-20574000D01*
X28878000Y-25400000D02*
X28878000Y-24450991D01*
X28878000Y-24450991D02*
X27753000Y-23325991D01*
X54278000Y-22860000D02*
X54278000Y-21209000D01*
X27753000Y-21318000D02*
X27753000Y-23325991D01*
X28497000Y-20574000D02*
X53643000Y-20574000D01*
X27753000Y-21318000D02*
X28497000Y-20574000D01*
D17*
%TO.N,CLK2*%
X47948000Y-21610000D02*
X49198000Y-22860000D01*
X39038000Y-25400000D02*
X40328000Y-24110000D01*
X41060233Y-21610000D02*
X47948000Y-21610000D01*
X40328000Y-24110000D02*
X40328000Y-22342233D01*
X40328000Y-22342233D02*
X41060233Y-21610000D01*
D18*
%TO.N,A4*%
X54278000Y-10160000D02*
X52953000Y-8835000D01*
X40253000Y-8835000D02*
X39038000Y-7620000D01*
X52953000Y-8835000D02*
X40253000Y-8835000D01*
%TO.N,A6*%
X33958000Y-7620000D02*
X38181000Y-3397000D01*
X38181000Y-3397000D02*
X47928000Y-3397000D01*
%TO.N,READY*%
X13638000Y-25400000D02*
X17838000Y-29600000D01*
X56936000Y-29600000D02*
X58088000Y-28448000D01*
X17838000Y-29600000D02*
X56936000Y-29600000D01*
D20*
%TO.N,GND*%
X12438000Y-21852000D02*
X12438000Y-26720000D01*
%TD*%
%TA.AperFunction,Conductor*%
%TO.N,GND*%
G36*
X60695865Y-23403348D02*
G01*
X60740382Y-23454725D01*
X60767429Y-23512728D01*
X60767432Y-23512734D01*
X60897954Y-23699141D01*
X61058858Y-23860045D01*
X61058861Y-23860047D01*
X61169913Y-23937806D01*
X61169915Y-23937807D01*
X61213540Y-23992383D01*
X61220734Y-24061882D01*
X61189212Y-24124236D01*
X61171678Y-24139699D01*
X61103232Y-24189428D01*
X61103225Y-24189434D01*
X60967434Y-24325225D01*
X60967430Y-24325230D01*
X60854565Y-24480577D01*
X60767384Y-24651677D01*
X60746194Y-24716893D01*
X60706755Y-24774568D01*
X60642396Y-24801765D01*
X60573550Y-24789850D01*
X60522075Y-24742605D01*
X60510332Y-24716890D01*
X60489084Y-24651495D01*
X60477455Y-24628672D01*
X60401865Y-24480319D01*
X60288945Y-24324898D01*
X60153102Y-24189055D01*
X60129500Y-24171907D01*
X60084754Y-24139396D01*
X60042088Y-24084066D01*
X60036110Y-24014453D01*
X60068716Y-23952658D01*
X60086511Y-23937508D01*
X60197139Y-23860047D01*
X60358047Y-23699139D01*
X60488568Y-23512734D01*
X60515618Y-23454724D01*
X60561790Y-23402285D01*
X60628983Y-23383133D01*
X60695865Y-23403348D01*
G37*
%TD.AperFunction*%
%TA.AperFunction,Conductor*%
G36*
X71135677Y-654685D02*
G01*
X71156319Y-671319D01*
X72988681Y-2503681D01*
X73022166Y-2565004D01*
X73025000Y-2591362D01*
X73025000Y-32968638D01*
X73005315Y-33035677D01*
X72988681Y-33056319D01*
X71156319Y-34888681D01*
X71094996Y-34922166D01*
X71068638Y-34925000D01*
X2591362Y-34925000D01*
X2524323Y-34905315D01*
X2503681Y-34888681D01*
X671319Y-33056319D01*
X637834Y-32994996D01*
X635000Y-32968638D01*
X635000Y-7619998D01*
X12332532Y-7619998D01*
X12332532Y-7620001D01*
X12352364Y-7846686D01*
X12352366Y-7846697D01*
X12411258Y-8066488D01*
X12411261Y-8066497D01*
X12507431Y-8272732D01*
X12507432Y-8272734D01*
X12637954Y-8459141D01*
X12798857Y-8620044D01*
X12798860Y-8620046D01*
X12798861Y-8620047D01*
X12909483Y-8697505D01*
X12953108Y-8752080D01*
X12960302Y-8821578D01*
X12928780Y-8883933D01*
X12911246Y-8899396D01*
X12842904Y-8949050D01*
X12842895Y-8949057D01*
X12707057Y-9084895D01*
X12707057Y-9084896D01*
X12707055Y-9084898D01*
X12658560Y-9151645D01*
X12594135Y-9240318D01*
X12506916Y-9411493D01*
X12447553Y-9594197D01*
X12417500Y-9783945D01*
X12417500Y-10536054D01*
X12447553Y-10725802D01*
X12506916Y-10908506D01*
X12506918Y-10908509D01*
X12594135Y-11079681D01*
X12707055Y-11235102D01*
X12842898Y-11370945D01*
X12998319Y-11483865D01*
X13131079Y-11551510D01*
X13169493Y-11571083D01*
X13255688Y-11599089D01*
X13352199Y-11630447D01*
X13541945Y-11660500D01*
X13541946Y-11660500D01*
X13734054Y-11660500D01*
X13734055Y-11660500D01*
X13923801Y-11630447D01*
X14078006Y-11580342D01*
X14147845Y-11578348D01*
X14204003Y-11610593D01*
X16451228Y-13857819D01*
X16484713Y-13919142D01*
X16479729Y-13988834D01*
X16437857Y-14044767D01*
X16372393Y-14069184D01*
X16363547Y-14069500D01*
X15598741Y-14069500D01*
X15598721Y-14069499D01*
X15592607Y-14069499D01*
X15469394Y-14069499D01*
X15368597Y-14089548D01*
X15368592Y-14089548D01*
X15348549Y-14093536D01*
X15348547Y-14093536D01*
X15301397Y-14113067D01*
X15234719Y-14140685D01*
X15234717Y-14140686D01*
X15132266Y-14209141D01*
X15132263Y-14209144D01*
X13768229Y-15573181D01*
X13706906Y-15606666D01*
X13680548Y-15609500D01*
X13621354Y-15609500D01*
X13588897Y-15616398D01*
X13436197Y-15648855D01*
X13436192Y-15648857D01*
X13263270Y-15725848D01*
X13263265Y-15725851D01*
X13110129Y-15837111D01*
X12983466Y-15977785D01*
X12888821Y-16141715D01*
X12888818Y-16141722D01*
X12830327Y-16321740D01*
X12830326Y-16321744D01*
X12810540Y-16510000D01*
X12830326Y-16698256D01*
X12830327Y-16698259D01*
X12888818Y-16878277D01*
X12888821Y-16878284D01*
X12983467Y-17042216D01*
X13110129Y-17182888D01*
X13263265Y-17294148D01*
X13263270Y-17294151D01*
X13436192Y-17371142D01*
X13436197Y-17371144D01*
X13621354Y-17410500D01*
X13621355Y-17410500D01*
X13810644Y-17410500D01*
X13810646Y-17410500D01*
X13995803Y-17371144D01*
X14168730Y-17294151D01*
X14321871Y-17182888D01*
X14448533Y-17042216D01*
X14543179Y-16878284D01*
X14601674Y-16698256D01*
X14619321Y-16530344D01*
X14645904Y-16465734D01*
X14654951Y-16455638D01*
X15753772Y-15356819D01*
X15815095Y-15323334D01*
X15841453Y-15320500D01*
X22773059Y-15320500D01*
X22840098Y-15340185D01*
X22885853Y-15392989D01*
X22896380Y-15457460D01*
X22892540Y-15493999D01*
X22902897Y-15592539D01*
X22890327Y-15661268D01*
X22842595Y-15712292D01*
X22779576Y-15729500D01*
X21576080Y-15729500D01*
X21431092Y-15758340D01*
X21431082Y-15758343D01*
X21294511Y-15814912D01*
X21294504Y-15814916D01*
X21268094Y-15832563D01*
X21241684Y-15850210D01*
X21241683Y-15850211D01*
X21171581Y-15897050D01*
X21171580Y-15897051D01*
X16885052Y-20183578D01*
X16885049Y-20183581D01*
X16854880Y-20228732D01*
X16854881Y-20228733D01*
X16802914Y-20306508D01*
X16746343Y-20443082D01*
X16746340Y-20443092D01*
X16717500Y-20588079D01*
X16717500Y-21497099D01*
X16697815Y-21564138D01*
X16645011Y-21609893D01*
X16575853Y-21619837D01*
X16561406Y-21616874D01*
X16428000Y-21581127D01*
X16428000Y-22544314D01*
X16423606Y-22539920D01*
X16332394Y-22487259D01*
X16230661Y-22460000D01*
X16125339Y-22460000D01*
X16023606Y-22487259D01*
X15932394Y-22539920D01*
X15928000Y-22544314D01*
X15928000Y-21581127D01*
X15731671Y-21633734D01*
X15525517Y-21729865D01*
X15339179Y-21860342D01*
X15178339Y-22021182D01*
X15160806Y-22046222D01*
X15106229Y-22089845D01*
X15036730Y-22097037D01*
X14974376Y-22065513D01*
X14938963Y-22005283D01*
X14935943Y-21988349D01*
X14932091Y-21952516D01*
X14881797Y-21817671D01*
X14881793Y-21817664D01*
X14795547Y-21702455D01*
X14795544Y-21702452D01*
X14680335Y-21616206D01*
X14680328Y-21616202D01*
X14545482Y-21565908D01*
X14545483Y-21565908D01*
X14485883Y-21559501D01*
X14485881Y-21559500D01*
X14485873Y-21559500D01*
X14485864Y-21559500D01*
X12790129Y-21559500D01*
X12790123Y-21559501D01*
X12730516Y-21565908D01*
X12595671Y-21616202D01*
X12595664Y-21616206D01*
X12480455Y-21702452D01*
X12480452Y-21702455D01*
X12394206Y-21817664D01*
X12394202Y-21817671D01*
X12343908Y-21952517D01*
X12337501Y-22012116D01*
X12337500Y-22012135D01*
X12337500Y-23707870D01*
X12337501Y-23707876D01*
X12343908Y-23767483D01*
X12394202Y-23902328D01*
X12394204Y-23902331D01*
X12474147Y-24009121D01*
X12498565Y-24074585D01*
X12483714Y-24142858D01*
X12474251Y-24157582D01*
X12474202Y-24157671D01*
X12423908Y-24292517D01*
X12417501Y-24352116D01*
X12417501Y-24352123D01*
X12417500Y-24352135D01*
X12417500Y-26447870D01*
X12417501Y-26447876D01*
X12423908Y-26507483D01*
X12474202Y-26642328D01*
X12474206Y-26642335D01*
X12560452Y-26757544D01*
X12560455Y-26757547D01*
X12675664Y-26843793D01*
X12675671Y-26843797D01*
X12810517Y-26894091D01*
X12810516Y-26894091D01*
X12817444Y-26894835D01*
X12870127Y-26900500D01*
X14202547Y-26900499D01*
X14269586Y-26920184D01*
X14290228Y-26936818D01*
X17349016Y-29995606D01*
X17349045Y-29995637D01*
X17439264Y-30085856D01*
X17439267Y-30085858D01*
X17516190Y-30137256D01*
X17541710Y-30154309D01*
X17541712Y-30154310D01*
X17541715Y-30154312D01*
X17608396Y-30181931D01*
X17608398Y-30181933D01*
X17648640Y-30198601D01*
X17655548Y-30201463D01*
X17715971Y-30213481D01*
X17776393Y-30225500D01*
X56997607Y-30225500D01*
X57058029Y-30213481D01*
X57118452Y-30201463D01*
X57118455Y-30201461D01*
X57118458Y-30201461D01*
X57151787Y-30187654D01*
X57151786Y-30187654D01*
X57151792Y-30187652D01*
X57232286Y-30154312D01*
X57283509Y-30120084D01*
X57334733Y-30085858D01*
X57421858Y-29998733D01*
X57421859Y-29998731D01*
X57428925Y-29991665D01*
X57428927Y-29991661D01*
X58035771Y-29384819D01*
X58097094Y-29351334D01*
X58123452Y-29348500D01*
X58182644Y-29348500D01*
X58182646Y-29348500D01*
X58367803Y-29309144D01*
X58540730Y-29232151D01*
X58693871Y-29120888D01*
X58820533Y-28980216D01*
X58915179Y-28816284D01*
X58968754Y-28651397D01*
X59008190Y-28593724D01*
X59072549Y-28566525D01*
X59112459Y-28568426D01*
X59263354Y-28600500D01*
X59263355Y-28600500D01*
X59452644Y-28600500D01*
X59452646Y-28600500D01*
X59637803Y-28561144D01*
X59810730Y-28484151D01*
X59963871Y-28372888D01*
X60090533Y-28232216D01*
X60185179Y-28068284D01*
X60243674Y-27888256D01*
X60262247Y-27711536D01*
X60288832Y-27646924D01*
X60346129Y-27606939D01*
X60385568Y-27600500D01*
X63061920Y-27600500D01*
X63159462Y-27581096D01*
X63206913Y-27571658D01*
X63343495Y-27515084D01*
X63392729Y-27482186D01*
X63466416Y-27432952D01*
X64005422Y-26893943D01*
X64066743Y-26860460D01*
X64131418Y-26863695D01*
X64138976Y-26866150D01*
X64152199Y-26870447D01*
X64341945Y-26900500D01*
X64341946Y-26900500D01*
X64534054Y-26900500D01*
X64534055Y-26900500D01*
X64723801Y-26870447D01*
X64906509Y-26811082D01*
X65077681Y-26723865D01*
X65233102Y-26610945D01*
X65368945Y-26475102D01*
X65481865Y-26319681D01*
X65569082Y-26148509D01*
X65628447Y-25965801D01*
X65658500Y-25776055D01*
X65658500Y-25023945D01*
X65628447Y-24834199D01*
X65590331Y-24716890D01*
X65569083Y-24651493D01*
X65557455Y-24628672D01*
X65481865Y-24480319D01*
X65368945Y-24324898D01*
X65233102Y-24189055D01*
X65077681Y-24076135D01*
X65049708Y-24061882D01*
X64906506Y-23988916D01*
X64723802Y-23929553D01*
X64628928Y-23914526D01*
X64534055Y-23899500D01*
X64341945Y-23899500D01*
X64278696Y-23909517D01*
X64152197Y-23929553D01*
X63969493Y-23988916D01*
X63798318Y-24076135D01*
X63711676Y-24139085D01*
X63642898Y-24189055D01*
X63642896Y-24189057D01*
X63642895Y-24189057D01*
X63507057Y-24324895D01*
X63507057Y-24324896D01*
X63507055Y-24324898D01*
X63487271Y-24352129D01*
X63394135Y-24480318D01*
X63306917Y-24651492D01*
X63285667Y-24716892D01*
X63246229Y-24774567D01*
X63181870Y-24801765D01*
X63113024Y-24789850D01*
X63061548Y-24742605D01*
X63049805Y-24716891D01*
X63028616Y-24651680D01*
X62941434Y-24480577D01*
X62828569Y-24325230D01*
X62828565Y-24325225D01*
X62692774Y-24189434D01*
X62624321Y-24139700D01*
X62581656Y-24084370D01*
X62575677Y-24014757D01*
X62608283Y-23952962D01*
X62626077Y-23937812D01*
X62737139Y-23860047D01*
X62898047Y-23699139D01*
X63028568Y-23512734D01*
X63124739Y-23306496D01*
X63183635Y-23086692D01*
X63203468Y-22860000D01*
X63183635Y-22633308D01*
X63124739Y-22413504D01*
X63028568Y-22207266D01*
X62898047Y-22020861D01*
X62898045Y-22020858D01*
X62737141Y-21859954D01*
X62550734Y-21729432D01*
X62550732Y-21729431D01*
X62344497Y-21633261D01*
X62344488Y-21633258D01*
X62124697Y-21574366D01*
X62124693Y-21574365D01*
X62124692Y-21574365D01*
X62124691Y-21574364D01*
X62124686Y-21574364D01*
X61898002Y-21554532D01*
X61897998Y-21554532D01*
X61671313Y-21574364D01*
X61671302Y-21574366D01*
X61451511Y-21633258D01*
X61451502Y-21633261D01*
X61245267Y-21729431D01*
X61245265Y-21729432D01*
X61058858Y-21859954D01*
X60897954Y-22020858D01*
X60767432Y-22207265D01*
X60767431Y-22207267D01*
X60740382Y-22265275D01*
X60694209Y-22317714D01*
X60627016Y-22336866D01*
X60560135Y-22316650D01*
X60515618Y-22265275D01*
X60488568Y-22207267D01*
X60488567Y-22207265D01*
X60358048Y-22020862D01*
X60289702Y-21952516D01*
X60197139Y-21859953D01*
X60192373Y-21856615D01*
X60161375Y-21834910D01*
X60117751Y-21780332D01*
X60108500Y-21733336D01*
X60108500Y-18416906D01*
X60079659Y-18271919D01*
X60079658Y-18271918D01*
X60079658Y-18271914D01*
X60079656Y-18271909D01*
X60023087Y-18135338D01*
X60023080Y-18135325D01*
X59970171Y-18056142D01*
X59970170Y-18056140D01*
X59940954Y-18012413D01*
X58259722Y-16331181D01*
X58226237Y-16269858D01*
X58231221Y-16200166D01*
X58273093Y-16144233D01*
X58338557Y-16119816D01*
X58347403Y-16119500D01*
X62408604Y-16119500D01*
X62469026Y-16107481D01*
X62529449Y-16095463D01*
X62579493Y-16074734D01*
X62643283Y-16048312D01*
X62694506Y-16014084D01*
X62745730Y-15979858D01*
X62832855Y-15892733D01*
X62832855Y-15892731D01*
X62843063Y-15882524D01*
X62843067Y-15882519D01*
X62890774Y-15834814D01*
X62952097Y-15801330D01*
X62978453Y-15798497D01*
X63037644Y-15798497D01*
X63037646Y-15798497D01*
X63222803Y-15759141D01*
X63395730Y-15682148D01*
X63548871Y-15570885D01*
X63675533Y-15430213D01*
X63770179Y-15266281D01*
X63828674Y-15086253D01*
X63848460Y-14897997D01*
X63828674Y-14709741D01*
X63770179Y-14529713D01*
X63675533Y-14365781D01*
X63548871Y-14225109D01*
X63526897Y-14209144D01*
X63395734Y-14113848D01*
X63395729Y-14113845D01*
X63222807Y-14036854D01*
X63222802Y-14036852D01*
X63077001Y-14005862D01*
X63037646Y-13997497D01*
X62848354Y-13997497D01*
X62815897Y-14004395D01*
X62663197Y-14036852D01*
X62663192Y-14036854D01*
X62490270Y-14113845D01*
X62490265Y-14113848D01*
X62337129Y-14225108D01*
X62210466Y-14365782D01*
X62115821Y-14529712D01*
X62115818Y-14529719D01*
X62057327Y-14709737D01*
X62057326Y-14709741D01*
X62052310Y-14757463D01*
X62025726Y-14822076D01*
X61968429Y-14862061D01*
X61928990Y-14868500D01*
X42254975Y-14868500D01*
X42187936Y-14848815D01*
X42142181Y-14796011D01*
X42132237Y-14726853D01*
X42161262Y-14663297D01*
X42182091Y-14644181D01*
X42183871Y-14642888D01*
X42310533Y-14502216D01*
X42405179Y-14338284D01*
X42463674Y-14158256D01*
X42483460Y-13970000D01*
X42483460Y-13969997D01*
X42483460Y-13963502D01*
X42484782Y-13963502D01*
X42496076Y-13901735D01*
X42543807Y-13850710D01*
X42606829Y-13833500D01*
X43414252Y-13833500D01*
X43481291Y-13853185D01*
X43506400Y-13874526D01*
X43512126Y-13880885D01*
X43512130Y-13880889D01*
X43665265Y-13992148D01*
X43665270Y-13992151D01*
X43838192Y-14069142D01*
X43838197Y-14069144D01*
X44023354Y-14108500D01*
X44023355Y-14108500D01*
X44212644Y-14108500D01*
X44212646Y-14108500D01*
X44397803Y-14069144D01*
X44570730Y-13992151D01*
X44723871Y-13880888D01*
X44850533Y-13740216D01*
X44945179Y-13576284D01*
X45003674Y-13396256D01*
X45023460Y-13208000D01*
X45023460Y-13207997D01*
X45023460Y-13201502D01*
X45024782Y-13201502D01*
X45036076Y-13139735D01*
X45083807Y-13088710D01*
X45146829Y-13071500D01*
X46211607Y-13071500D01*
X46272029Y-13059481D01*
X46332452Y-13047463D01*
X46382496Y-13026734D01*
X46446286Y-13000312D01*
X46497509Y-12966084D01*
X46548733Y-12931858D01*
X46635858Y-12844733D01*
X46635859Y-12844730D01*
X47143857Y-12336734D01*
X47148023Y-12330500D01*
X47212311Y-12234286D01*
X47259463Y-12120452D01*
X47266224Y-12086463D01*
X47283500Y-11999607D01*
X47283500Y-11876394D01*
X47283500Y-11557348D01*
X47303185Y-11490309D01*
X47334612Y-11457032D01*
X47453102Y-11370945D01*
X47588945Y-11235102D01*
X47701865Y-11079681D01*
X47789082Y-10908509D01*
X47805006Y-10859500D01*
X47810069Y-10843919D01*
X47849506Y-10786243D01*
X47913864Y-10759044D01*
X47982711Y-10770958D01*
X48034187Y-10818202D01*
X48045931Y-10843919D01*
X48066915Y-10908504D01*
X48066918Y-10908509D01*
X48154135Y-11079681D01*
X48267055Y-11235102D01*
X48402898Y-11370945D01*
X48558319Y-11483865D01*
X48691079Y-11551510D01*
X48729493Y-11571083D01*
X48815688Y-11599089D01*
X48912199Y-11630447D01*
X49101945Y-11660500D01*
X49101946Y-11660500D01*
X49294054Y-11660500D01*
X49294055Y-11660500D01*
X49483801Y-11630447D01*
X49666509Y-11571082D01*
X49837681Y-11483865D01*
X49993102Y-11370945D01*
X50128945Y-11235102D01*
X50241865Y-11079681D01*
X50329082Y-10908509D01*
X50345006Y-10859500D01*
X50350069Y-10843919D01*
X50389506Y-10786243D01*
X50453864Y-10759044D01*
X50522711Y-10770958D01*
X50574187Y-10818202D01*
X50585931Y-10843919D01*
X50606915Y-10908504D01*
X50606918Y-10908509D01*
X50694135Y-11079681D01*
X50807055Y-11235102D01*
X50942898Y-11370945D01*
X51098319Y-11483865D01*
X51231079Y-11551510D01*
X51269493Y-11571083D01*
X51355688Y-11599089D01*
X51452199Y-11630447D01*
X51641945Y-11660500D01*
X51641946Y-11660500D01*
X51834054Y-11660500D01*
X51834055Y-11660500D01*
X52023801Y-11630447D01*
X52206509Y-11571082D01*
X52377681Y-11483865D01*
X52533102Y-11370945D01*
X52668945Y-11235102D01*
X52781865Y-11079681D01*
X52869082Y-10908509D01*
X52885006Y-10859500D01*
X52890069Y-10843919D01*
X52929506Y-10786243D01*
X52993864Y-10759044D01*
X53062711Y-10770958D01*
X53114187Y-10818202D01*
X53125931Y-10843919D01*
X53146915Y-10908504D01*
X53146918Y-10908509D01*
X53234135Y-11079681D01*
X53347055Y-11235102D01*
X53482898Y-11370945D01*
X53638319Y-11483865D01*
X53771079Y-11551510D01*
X53809493Y-11571083D01*
X53895688Y-11599089D01*
X53992199Y-11630447D01*
X54181945Y-11660500D01*
X54181946Y-11660500D01*
X54374054Y-11660500D01*
X54374055Y-11660500D01*
X54563801Y-11630447D01*
X54746509Y-11571082D01*
X54917681Y-11483865D01*
X55073102Y-11370945D01*
X55208945Y-11235102D01*
X55321865Y-11079681D01*
X55409082Y-10908509D01*
X55425006Y-10859500D01*
X55430069Y-10843919D01*
X55469506Y-10786243D01*
X55533864Y-10759044D01*
X55602711Y-10770958D01*
X55654187Y-10818202D01*
X55665931Y-10843919D01*
X55686915Y-10908504D01*
X55686918Y-10908509D01*
X55774135Y-11079681D01*
X55887055Y-11235102D01*
X56022898Y-11370945D01*
X56178319Y-11483865D01*
X56311079Y-11551510D01*
X56349493Y-11571083D01*
X56435688Y-11599089D01*
X56532199Y-11630447D01*
X56721945Y-11660500D01*
X56721946Y-11660500D01*
X56914054Y-11660500D01*
X56914055Y-11660500D01*
X57103801Y-11630447D01*
X57286509Y-11571082D01*
X57457681Y-11483865D01*
X57613102Y-11370945D01*
X57748945Y-11235102D01*
X57861865Y-11079681D01*
X57949082Y-10908509D01*
X57965006Y-10859500D01*
X57970069Y-10843919D01*
X58009506Y-10786243D01*
X58073864Y-10759044D01*
X58142711Y-10770958D01*
X58194187Y-10818202D01*
X58205931Y-10843919D01*
X58226915Y-10908504D01*
X58226918Y-10908509D01*
X58314135Y-11079681D01*
X58427055Y-11235102D01*
X58562898Y-11370945D01*
X58718319Y-11483865D01*
X58851079Y-11551510D01*
X58889493Y-11571083D01*
X58975688Y-11599089D01*
X59072199Y-11630447D01*
X59261945Y-11660500D01*
X59261946Y-11660500D01*
X59454054Y-11660500D01*
X59454055Y-11660500D01*
X59643801Y-11630447D01*
X59826509Y-11571082D01*
X59997681Y-11483865D01*
X60153102Y-11370945D01*
X60288945Y-11235102D01*
X60401865Y-11079681D01*
X60489082Y-10908509D01*
X60505006Y-10859500D01*
X60510069Y-10843919D01*
X60549506Y-10786243D01*
X60613864Y-10759044D01*
X60682711Y-10770958D01*
X60734187Y-10818202D01*
X60745931Y-10843919D01*
X60766915Y-10908504D01*
X60766918Y-10908509D01*
X60854135Y-11079681D01*
X60967055Y-11235102D01*
X61102898Y-11370945D01*
X61258319Y-11483865D01*
X61391079Y-11551510D01*
X61429493Y-11571083D01*
X61515688Y-11599089D01*
X61612199Y-11630447D01*
X61801945Y-11660500D01*
X61801946Y-11660500D01*
X61994054Y-11660500D01*
X61994055Y-11660500D01*
X62183801Y-11630447D01*
X62366509Y-11571082D01*
X62537681Y-11483865D01*
X62693102Y-11370945D01*
X62828945Y-11235102D01*
X62941865Y-11079681D01*
X63029082Y-10908509D01*
X63045006Y-10859500D01*
X63050069Y-10843919D01*
X63089506Y-10786243D01*
X63153864Y-10759044D01*
X63222711Y-10770958D01*
X63274187Y-10818202D01*
X63285931Y-10843919D01*
X63306915Y-10908504D01*
X63306918Y-10908509D01*
X63394135Y-11079681D01*
X63507055Y-11235102D01*
X63642898Y-11370945D01*
X63798319Y-11483865D01*
X63931079Y-11551510D01*
X63969493Y-11571083D01*
X64055688Y-11599089D01*
X64152199Y-11630447D01*
X64341945Y-11660500D01*
X64341946Y-11660500D01*
X64534054Y-11660500D01*
X64534055Y-11660500D01*
X64723801Y-11630447D01*
X64906509Y-11571082D01*
X65077681Y-11483865D01*
X65233102Y-11370945D01*
X65368945Y-11235102D01*
X65481865Y-11079681D01*
X65569082Y-10908509D01*
X65628447Y-10725801D01*
X65658500Y-10536055D01*
X65658500Y-9783945D01*
X65628447Y-9594199D01*
X65598424Y-9501797D01*
X65569083Y-9411493D01*
X65481864Y-9240318D01*
X65368945Y-9084898D01*
X65233102Y-8949055D01*
X65114615Y-8862969D01*
X65071949Y-8807639D01*
X65063500Y-8762651D01*
X65063500Y-8636750D01*
X65063501Y-8636729D01*
X65063501Y-8507400D01*
X65053238Y-8455810D01*
X65039463Y-8386558D01*
X65037464Y-8381733D01*
X65011672Y-8319464D01*
X64992312Y-8272724D01*
X64923858Y-8170276D01*
X64923855Y-8170272D01*
X62856919Y-6103338D01*
X62856916Y-6103334D01*
X62856916Y-6103335D01*
X62849849Y-6096268D01*
X62849849Y-6096267D01*
X62762724Y-6009142D01*
X62762723Y-6009141D01*
X62762722Y-6009140D01*
X62711500Y-5974915D01*
X62660277Y-5940688D01*
X62623208Y-5925334D01*
X62558335Y-5898463D01*
X62555636Y-5897345D01*
X62546446Y-5893538D01*
X62546444Y-5893537D01*
X62546443Y-5893537D01*
X62486020Y-5881518D01*
X62425601Y-5869500D01*
X62425598Y-5869500D01*
X62425597Y-5869500D01*
X61407382Y-5869500D01*
X61340343Y-5849815D01*
X61294588Y-5797011D01*
X61284644Y-5727853D01*
X61313669Y-5664297D01*
X61315232Y-5662528D01*
X61329873Y-5646267D01*
X61360533Y-5612216D01*
X61455179Y-5448284D01*
X61513674Y-5268256D01*
X61533460Y-5080000D01*
X61513674Y-4891744D01*
X61455179Y-4711716D01*
X61360533Y-4547784D01*
X61233871Y-4407112D01*
X61233870Y-4407111D01*
X61080734Y-4295851D01*
X61080729Y-4295848D01*
X60907807Y-4218857D01*
X60907802Y-4218855D01*
X60762001Y-4187865D01*
X60722646Y-4179500D01*
X60533354Y-4179500D01*
X60500897Y-4186398D01*
X60348197Y-4218855D01*
X60348192Y-4218857D01*
X60175270Y-4295848D01*
X60175265Y-4295851D01*
X60022129Y-4407111D01*
X59895466Y-4547785D01*
X59800821Y-4711715D01*
X59800818Y-4711722D01*
X59743209Y-4889025D01*
X59742326Y-4891744D01*
X59737240Y-4940136D01*
X59724678Y-5059651D01*
X59698093Y-5124266D01*
X59689039Y-5134370D01*
X59440227Y-5383182D01*
X59378907Y-5416666D01*
X59352548Y-5419500D01*
X59348653Y-5419500D01*
X59281614Y-5399815D01*
X59235859Y-5347011D01*
X59225915Y-5277853D01*
X59227362Y-5269722D01*
X59227673Y-5268258D01*
X59227674Y-5268256D01*
X59247460Y-5080000D01*
X59227674Y-4891744D01*
X59169179Y-4711716D01*
X59074533Y-4547784D01*
X58947871Y-4407112D01*
X58947870Y-4407111D01*
X58794734Y-4295851D01*
X58794729Y-4295848D01*
X58621807Y-4218857D01*
X58621802Y-4218855D01*
X58476001Y-4187865D01*
X58436646Y-4179500D01*
X58247354Y-4179500D01*
X58214897Y-4186398D01*
X58062197Y-4218855D01*
X58062192Y-4218857D01*
X57889270Y-4295848D01*
X57889265Y-4295851D01*
X57736129Y-4407111D01*
X57609465Y-4547785D01*
X57573835Y-4609500D01*
X57523268Y-4657716D01*
X57466448Y-4671500D01*
X56575568Y-4671500D01*
X56508529Y-4651815D01*
X56462774Y-4599011D01*
X56452247Y-4560462D01*
X56450915Y-4547785D01*
X56433674Y-4383744D01*
X56375179Y-4203716D01*
X56280533Y-4039784D01*
X56153871Y-3899112D01*
X56153870Y-3899111D01*
X56000734Y-3787851D01*
X56000729Y-3787848D01*
X55827807Y-3710857D01*
X55827802Y-3710855D01*
X55682001Y-3679865D01*
X55642646Y-3671500D01*
X55453354Y-3671500D01*
X55420897Y-3678398D01*
X55268197Y-3710855D01*
X55268192Y-3710857D01*
X55095270Y-3787848D01*
X55095265Y-3787851D01*
X54942130Y-3899110D01*
X54942126Y-3899114D01*
X54936400Y-3905474D01*
X54876913Y-3942121D01*
X54844252Y-3946500D01*
X51458632Y-3946500D01*
X51391593Y-3926815D01*
X51345838Y-3874011D01*
X51335894Y-3804853D01*
X51340699Y-3784186D01*
X51353674Y-3744256D01*
X51373460Y-3556000D01*
X51353674Y-3367744D01*
X51295179Y-3187716D01*
X51200533Y-3023784D01*
X51073871Y-2883112D01*
X51048645Y-2864784D01*
X50920734Y-2771851D01*
X50920729Y-2771848D01*
X50747807Y-2694857D01*
X50747802Y-2694855D01*
X50602001Y-2663865D01*
X50562646Y-2655500D01*
X50373354Y-2655500D01*
X50340897Y-2662398D01*
X50188197Y-2694855D01*
X50188192Y-2694857D01*
X50015270Y-2771848D01*
X50015265Y-2771851D01*
X49862129Y-2883111D01*
X49735466Y-3023785D01*
X49640821Y-3187715D01*
X49640818Y-3187722D01*
X49582325Y-3367745D01*
X49580464Y-3385459D01*
X49553881Y-3450074D01*
X49496584Y-3490060D01*
X49457143Y-3496500D01*
X48955568Y-3496500D01*
X48888529Y-3476815D01*
X48842774Y-3424011D01*
X48832247Y-3385462D01*
X48830385Y-3367744D01*
X48813674Y-3208744D01*
X48755179Y-3028716D01*
X48660533Y-2864784D01*
X48533871Y-2724112D01*
X48533870Y-2724111D01*
X48380734Y-2612851D01*
X48380729Y-2612848D01*
X48207807Y-2535857D01*
X48207802Y-2535855D01*
X48056430Y-2503681D01*
X48022646Y-2496500D01*
X47833354Y-2496500D01*
X47800897Y-2503398D01*
X47648197Y-2535855D01*
X47648192Y-2535857D01*
X47475270Y-2612848D01*
X47475265Y-2612851D01*
X47322130Y-2724110D01*
X47322126Y-2724114D01*
X47316400Y-2730474D01*
X47256913Y-2767121D01*
X47224252Y-2771500D01*
X38119389Y-2771500D01*
X38058971Y-2783518D01*
X38015743Y-2792116D01*
X37998546Y-2795537D01*
X37963745Y-2809953D01*
X37963744Y-2809953D01*
X37884715Y-2842686D01*
X37874627Y-2849428D01*
X37874626Y-2849429D01*
X37782268Y-2911140D01*
X37738705Y-2954703D01*
X37695142Y-2998267D01*
X37695139Y-2998270D01*
X34372822Y-6320586D01*
X34311499Y-6354071D01*
X34253049Y-6352680D01*
X34184699Y-6334367D01*
X34184702Y-6334367D01*
X34184692Y-6334365D01*
X34184689Y-6334364D01*
X34184686Y-6334364D01*
X33958001Y-6314532D01*
X33957998Y-6314532D01*
X33731313Y-6334364D01*
X33731302Y-6334366D01*
X33511511Y-6393258D01*
X33511502Y-6393261D01*
X33305267Y-6489431D01*
X33305265Y-6489432D01*
X33118858Y-6619954D01*
X33093874Y-6644937D01*
X33032550Y-6678420D01*
X32962858Y-6673433D01*
X32918515Y-6644934D01*
X31926919Y-5653338D01*
X31926916Y-5653334D01*
X31926916Y-5653335D01*
X31919849Y-5646268D01*
X31919849Y-5646267D01*
X31832724Y-5559142D01*
X31832723Y-5559141D01*
X31832722Y-5559140D01*
X31781500Y-5524915D01*
X31730277Y-5490688D01*
X31730274Y-5490686D01*
X31730273Y-5490686D01*
X31730272Y-5490685D01*
X31627904Y-5448284D01*
X31627902Y-5448283D01*
X31616450Y-5443539D01*
X31616446Y-5443538D01*
X31616444Y-5443537D01*
X31616443Y-5443537D01*
X31556020Y-5431518D01*
X31495601Y-5419500D01*
X31495598Y-5419500D01*
X31495597Y-5419500D01*
X15274606Y-5419500D01*
X15151393Y-5419500D01*
X15151389Y-5419500D01*
X15090971Y-5431518D01*
X15047743Y-5440116D01*
X15030546Y-5443537D01*
X14916716Y-5490687D01*
X14831049Y-5547929D01*
X14831048Y-5547930D01*
X14814263Y-5559144D01*
X14052821Y-6320586D01*
X13991498Y-6354071D01*
X13933048Y-6352680D01*
X13864697Y-6334366D01*
X13864693Y-6334365D01*
X13864692Y-6334365D01*
X13707209Y-6320587D01*
X13638001Y-6314532D01*
X13637998Y-6314532D01*
X13411313Y-6334364D01*
X13411302Y-6334366D01*
X13191511Y-6393258D01*
X13191502Y-6393261D01*
X12985267Y-6489431D01*
X12985265Y-6489432D01*
X12798858Y-6619954D01*
X12637954Y-6780858D01*
X12507432Y-6967265D01*
X12507431Y-6967267D01*
X12411261Y-7173502D01*
X12411258Y-7173511D01*
X12352366Y-7393302D01*
X12352364Y-7393313D01*
X12332532Y-7619998D01*
X635000Y-7619998D01*
X635000Y-3809997D01*
X3815034Y-3809997D01*
X3815034Y-3810002D01*
X3834858Y-4036599D01*
X3834860Y-4036610D01*
X3893730Y-4256317D01*
X3893735Y-4256331D01*
X3989863Y-4462478D01*
X4040974Y-4535472D01*
X4720000Y-3856446D01*
X4720000Y-3862661D01*
X4747259Y-3964394D01*
X4799920Y-4055606D01*
X4874394Y-4130080D01*
X4965606Y-4182741D01*
X5067339Y-4210000D01*
X5073553Y-4210000D01*
X4394526Y-4889025D01*
X4467513Y-4940132D01*
X4467521Y-4940136D01*
X4673668Y-5036264D01*
X4673682Y-5036269D01*
X4893389Y-5095139D01*
X4893400Y-5095141D01*
X5119998Y-5114966D01*
X5120002Y-5114966D01*
X5346599Y-5095141D01*
X5346610Y-5095139D01*
X5566317Y-5036269D01*
X5566331Y-5036264D01*
X5772478Y-4940136D01*
X5845471Y-4889024D01*
X5166447Y-4210000D01*
X5172661Y-4210000D01*
X5274394Y-4182741D01*
X5365606Y-4130080D01*
X5440080Y-4055606D01*
X5492741Y-3964394D01*
X5520000Y-3862661D01*
X5520000Y-3856447D01*
X6199024Y-4535471D01*
X6250134Y-4462481D01*
X6257340Y-4447028D01*
X6303511Y-4394587D01*
X6370704Y-4375433D01*
X6437585Y-4395646D01*
X6482105Y-4447022D01*
X6489430Y-4462730D01*
X6489432Y-4462734D01*
X6619954Y-4649141D01*
X6780858Y-4810045D01*
X6780861Y-4810047D01*
X6967266Y-4940568D01*
X7173504Y-5036739D01*
X7393308Y-5095635D01*
X7555230Y-5109801D01*
X7619998Y-5115468D01*
X7620000Y-5115468D01*
X7620002Y-5115468D01*
X7676673Y-5110509D01*
X7846692Y-5095635D01*
X8066496Y-5036739D01*
X8272734Y-4940568D01*
X8459139Y-4810047D01*
X8620047Y-4649139D01*
X8750568Y-4462734D01*
X8846739Y-4256496D01*
X8905635Y-4036692D01*
X8925468Y-3810000D01*
X8925468Y-3809997D01*
X10165034Y-3809997D01*
X10165034Y-3810002D01*
X10184858Y-4036599D01*
X10184860Y-4036610D01*
X10243730Y-4256317D01*
X10243735Y-4256331D01*
X10339863Y-4462478D01*
X10390974Y-4535472D01*
X11070000Y-3856446D01*
X11070000Y-3862661D01*
X11097259Y-3964394D01*
X11149920Y-4055606D01*
X11224394Y-4130080D01*
X11315606Y-4182741D01*
X11417339Y-4210000D01*
X11423553Y-4210000D01*
X10744526Y-4889025D01*
X10817513Y-4940132D01*
X10817521Y-4940136D01*
X11023668Y-5036264D01*
X11023682Y-5036269D01*
X11243389Y-5095139D01*
X11243400Y-5095141D01*
X11469998Y-5114966D01*
X11470002Y-5114966D01*
X11696599Y-5095141D01*
X11696610Y-5095139D01*
X11916317Y-5036269D01*
X11916331Y-5036264D01*
X12122478Y-4940136D01*
X12195471Y-4889024D01*
X11516447Y-4210000D01*
X11522661Y-4210000D01*
X11624394Y-4182741D01*
X11715606Y-4130080D01*
X11790080Y-4055606D01*
X11842741Y-3964394D01*
X11870000Y-3862661D01*
X11870000Y-3856447D01*
X12549024Y-4535471D01*
X12600134Y-4462481D01*
X12607340Y-4447028D01*
X12653511Y-4394587D01*
X12720704Y-4375433D01*
X12787585Y-4395646D01*
X12832105Y-4447022D01*
X12839430Y-4462730D01*
X12839432Y-4462734D01*
X12969954Y-4649141D01*
X13130858Y-4810045D01*
X13130861Y-4810047D01*
X13317266Y-4940568D01*
X13523504Y-5036739D01*
X13743308Y-5095635D01*
X13905230Y-5109801D01*
X13969998Y-5115468D01*
X13970000Y-5115468D01*
X13970002Y-5115468D01*
X14026673Y-5110509D01*
X14196692Y-5095635D01*
X14416496Y-5036739D01*
X14622734Y-4940568D01*
X14809139Y-4810047D01*
X14970047Y-4649139D01*
X15100568Y-4462734D01*
X15196739Y-4256496D01*
X15255635Y-4036692D01*
X15275468Y-3810000D01*
X15255635Y-3583308D01*
X15196739Y-3363504D01*
X15100568Y-3157266D01*
X14970047Y-2970861D01*
X14970045Y-2970858D01*
X14809140Y-2809953D01*
X14622734Y-2679432D01*
X14622732Y-2679431D01*
X14416497Y-2583261D01*
X14416488Y-2583258D01*
X14196697Y-2524366D01*
X14196693Y-2524365D01*
X14196692Y-2524365D01*
X14196691Y-2524364D01*
X14196686Y-2524364D01*
X13970002Y-2504532D01*
X13969998Y-2504532D01*
X13743313Y-2524364D01*
X13743302Y-2524366D01*
X13523511Y-2583258D01*
X13523502Y-2583261D01*
X13317267Y-2679431D01*
X13317265Y-2679432D01*
X13130860Y-2809953D01*
X12969954Y-2970858D01*
X12839432Y-3157265D01*
X12839429Y-3157270D01*
X12832104Y-3172979D01*
X12785929Y-3225417D01*
X12718735Y-3244566D01*
X12651855Y-3224347D01*
X12607341Y-3172973D01*
X12600133Y-3157515D01*
X12600132Y-3157513D01*
X12549025Y-3084526D01*
X11870000Y-3763551D01*
X11870000Y-3757339D01*
X11842741Y-3655606D01*
X11790080Y-3564394D01*
X11715606Y-3489920D01*
X11624394Y-3437259D01*
X11522661Y-3410000D01*
X11516448Y-3410000D01*
X12195472Y-2730974D01*
X12122478Y-2679863D01*
X11916331Y-2583735D01*
X11916317Y-2583730D01*
X11696610Y-2524860D01*
X11696599Y-2524858D01*
X11470002Y-2505034D01*
X11469998Y-2505034D01*
X11243400Y-2524858D01*
X11243389Y-2524860D01*
X11023682Y-2583730D01*
X11023673Y-2583734D01*
X10817516Y-2679866D01*
X10817512Y-2679868D01*
X10744526Y-2730973D01*
X10744526Y-2730974D01*
X11423553Y-3410000D01*
X11417339Y-3410000D01*
X11315606Y-3437259D01*
X11224394Y-3489920D01*
X11149920Y-3564394D01*
X11097259Y-3655606D01*
X11070000Y-3757339D01*
X11070000Y-3763552D01*
X10390974Y-3084526D01*
X10390973Y-3084526D01*
X10339868Y-3157512D01*
X10339866Y-3157516D01*
X10243734Y-3363673D01*
X10243730Y-3363682D01*
X10184860Y-3583389D01*
X10184858Y-3583400D01*
X10165034Y-3809997D01*
X8925468Y-3809997D01*
X8905635Y-3583308D01*
X8846739Y-3363504D01*
X8750568Y-3157266D01*
X8620047Y-2970861D01*
X8620045Y-2970858D01*
X8459140Y-2809953D01*
X8272734Y-2679432D01*
X8272732Y-2679431D01*
X8066497Y-2583261D01*
X8066488Y-2583258D01*
X7846697Y-2524366D01*
X7846693Y-2524365D01*
X7846692Y-2524365D01*
X7846691Y-2524364D01*
X7846686Y-2524364D01*
X7620002Y-2504532D01*
X7619998Y-2504532D01*
X7393313Y-2524364D01*
X7393302Y-2524366D01*
X7173511Y-2583258D01*
X7173502Y-2583261D01*
X6967267Y-2679431D01*
X6967265Y-2679432D01*
X6780860Y-2809953D01*
X6619954Y-2970858D01*
X6489432Y-3157265D01*
X6489429Y-3157270D01*
X6482104Y-3172979D01*
X6435929Y-3225417D01*
X6368735Y-3244566D01*
X6301855Y-3224347D01*
X6257341Y-3172973D01*
X6250133Y-3157515D01*
X6250132Y-3157513D01*
X6199025Y-3084526D01*
X5520000Y-3763551D01*
X5520000Y-3757339D01*
X5492741Y-3655606D01*
X5440080Y-3564394D01*
X5365606Y-3489920D01*
X5274394Y-3437259D01*
X5172661Y-3410000D01*
X5166448Y-3410000D01*
X5845472Y-2730974D01*
X5772478Y-2679863D01*
X5566331Y-2583735D01*
X5566317Y-2583730D01*
X5346610Y-2524860D01*
X5346599Y-2524858D01*
X5120002Y-2505034D01*
X5119998Y-2505034D01*
X4893400Y-2524858D01*
X4893389Y-2524860D01*
X4673682Y-2583730D01*
X4673673Y-2583734D01*
X4467516Y-2679866D01*
X4467512Y-2679868D01*
X4394526Y-2730973D01*
X4394526Y-2730974D01*
X5073553Y-3410000D01*
X5067339Y-3410000D01*
X4965606Y-3437259D01*
X4874394Y-3489920D01*
X4799920Y-3564394D01*
X4747259Y-3655606D01*
X4720000Y-3757339D01*
X4720000Y-3763552D01*
X4040974Y-3084526D01*
X4040973Y-3084526D01*
X3989868Y-3157512D01*
X3989866Y-3157516D01*
X3893734Y-3363673D01*
X3893730Y-3363682D01*
X3834860Y-3583389D01*
X3834858Y-3583400D01*
X3815034Y-3809997D01*
X635000Y-3809997D01*
X635000Y-2591362D01*
X654685Y-2524323D01*
X671319Y-2503681D01*
X2503681Y-671319D01*
X2565004Y-637834D01*
X2591362Y-635000D01*
X71068638Y-635000D01*
X71135677Y-654685D01*
G37*
%TD.AperFunction*%
%TD*%
M02*
